<svg xmlns="http://www.w3.org/2000/svg" width="154" height="10" viewBox="0 0 184 60" fill="none"><path d="M115.777 34.0965V0.894165H125.633V34.0965H115.777Z" fill="white"></path><path d="M130.067 28.368V0.894165H139.929V28.368H130.067Z" fill="white"></path><path d="M144.362 22.6394V0.894165H154.218V22.6394H144.362Z" fill="white"></path><path d="M158.657 16.9121V0.894165H168.514V16.9121H158.657Z" fill="white"></path><path d="M172.952 11.1889V0.894165H182.809V11.1889H172.952Z" fill="white"></path><path d="M23.4883 16.7016L14.7494 15.3513C6.66788 14.1004 4.74786 12.3351 4.85259 8.79854C4.96896 4.98728 8.45989 2.00608 18.8512 2.00608C30.0804 2.00608 32.6928 6.47203 32.9371 10.2833H35.6833C35.596 3.2161 28.876 0.147217 18.1298 0.147217C7.55806 0.147217 1.89694 3.77726 1.75148 8.75177C1.60021 13.773 5.12023 15.9125 14.3886 17.4499L22.2898 18.7534C31.2033 20.1972 33.4258 21.869 33.3095 25.5926C33.1931 29.4974 29.2658 32.9872 18.8163 32.9872C7.34861 32.9872 2.62422 29.3104 2.7464 23.1258H0.00601882C-0.203437 30.1463 5.03296 34.846 19.0025 34.846C32.3204 34.846 36.2884 29.965 36.4222 25.4523C36.5793 20.1446 31.9887 18.0052 23.4883 16.7016Z" fill="white"></path><path d="M91.4453 0.887573H31.7446C33.5017 1.89884 34.9563 3.28422 35.9687 5.16647H47.6924V34.0958H54.104V5.16647H66.7412V34.0958H77.5281V22.2353H92.318C101.4 22.2353 105.461 18.0499 105.461 10.9827C105.456 6.51678 103.192 0.887573 91.4453 0.887573ZM87.8147 16.1911H77.5281V6.93765H88.8562C92.0388 6.93765 95.297 7.31177 95.297 11.6374C95.297 16.0975 91.2824 16.1911 87.8147 16.1911Z" fill="white"></path><path d="M4.99333 56.1726H3.6783V45.9948H0.0997925V44.8256H8.57183V45.9948H4.99333V56.1726Z" fill="white"></path><path d="M15.8737 56.1708V50.6639C15.8737 49.9682 15.7166 49.4538 15.4024 49.1089C15.0882 48.7639 14.5936 48.5944 13.9245 48.5944C13.0342 48.5944 12.3825 48.8399 11.9752 49.3251C11.5679 49.8104 11.3584 50.6054 11.3584 51.7162V56.1649H10.0783V44.0872H11.3584V47.7467C11.3584 48.1852 11.3351 48.5535 11.2944 48.8399H11.3701C11.6203 48.4307 11.981 48.1092 12.4465 47.8753C12.912 47.6415 13.4415 47.5187 14.0408 47.5187C15.0766 47.5187 15.8504 47.7643 16.3741 48.2612C16.892 48.7581 17.148 49.5414 17.148 50.6171V56.1708H15.8737Z" fill="white"></path><path d="M23.3672 56.3287C22.1162 56.3287 21.127 55.9428 20.4055 55.177C19.6781 54.4112 19.3174 53.3472 19.3174 51.9851C19.3174 50.6113 19.6549 49.5239 20.324 48.7172C20.999 47.9105 21.9009 47.5071 23.0355 47.5071C24.0945 47.5071 24.9382 47.8578 25.555 48.5594C26.1718 49.2609 26.4802 50.1845 26.4802 51.3362V52.1546H20.6499C20.6731 53.1543 20.9292 53.9143 21.4063 54.4287C21.8834 54.949 22.5526 55.2062 23.4196 55.2062C24.3331 55.2062 25.235 55.0133 26.1252 54.6333V55.7791C25.6714 55.9779 25.2408 56.1182 24.8393 56.2C24.432 56.2819 23.9432 56.3287 23.3672 56.3287ZM23.0181 48.5827C22.3373 48.5827 21.7961 48.8049 21.3888 49.2492C20.9873 49.6935 20.7488 50.3073 20.6731 51.0965H25.1012C25.1012 50.2839 24.9208 49.6642 24.56 49.2316C24.2051 48.799 23.693 48.5827 23.0181 48.5827Z" fill="white"></path><path d="M32.9725 56.1712V44.8184H34.2875V54.9786H39.2741V56.1712H32.9725Z" fill="white"></path><path d="M44.5739 56.3287C43.3228 56.3287 42.3337 55.9428 41.6121 55.177C40.8848 54.4112 40.524 53.3472 40.524 51.9851C40.524 50.6113 40.8615 49.5239 41.5307 48.7172C42.2056 47.9105 43.1075 47.5071 44.2422 47.5071C45.3012 47.5071 46.1449 47.8578 46.7617 48.5594C47.3785 49.2609 47.6868 50.1845 47.6868 51.3362V52.1546H41.8507C41.874 53.1543 42.13 53.9143 42.6071 54.4287C43.0843 54.949 43.7534 55.2062 44.6204 55.2062C45.5339 55.2062 46.4358 55.0133 47.3261 54.6333V55.7791C46.8722 55.9779 46.4416 56.1182 46.0402 56.2C45.6328 56.2819 45.1441 56.3287 44.5739 56.3287ZM44.2247 48.5827C43.5439 48.5827 43.0028 48.8049 42.5955 49.2492C42.194 49.6935 41.9554 50.3073 41.8798 51.0965H46.3078C46.3078 50.2839 46.1274 49.6642 45.7667 49.2316C45.4059 48.799 44.8939 48.5827 44.2247 48.5827Z" fill="white"></path><path d="M56.8043 47.6591V48.4775L55.2391 48.6646C55.3846 48.8458 55.5126 49.0855 55.6231 49.3778C55.7395 49.6701 55.7919 50.0033 55.7919 50.3658C55.7919 51.2017 55.5068 51.8623 54.9423 52.3592C54.3721 52.8561 53.5982 53.1075 52.609 53.1075C52.3588 53.1075 52.1203 53.09 51.8992 53.0432C51.3522 53.3355 51.0787 53.698 51.0787 54.1364C51.0787 54.3703 51.1718 54.5398 51.3638 54.6509C51.5559 54.7619 51.8817 54.8204 52.3472 54.8204H53.8484C54.7678 54.8204 55.4718 55.0133 55.9606 55.405C56.4552 55.7908 56.6996 56.3579 56.6996 57.1003C56.6996 58.0415 56.3214 58.7606 55.5708 59.2575C54.8202 59.7544 53.7204 59.9999 52.2774 59.9999C51.1718 59.9999 50.3165 59.7953 49.7171 59.3802C49.1178 58.9652 48.8152 58.3806 48.8152 57.6265C48.8152 57.1062 48.9782 56.6619 49.3098 56.2819C49.6415 55.9019 50.107 55.6505 50.7005 55.5161C50.4852 55.4167 50.299 55.2647 50.1535 55.0542C50.0081 54.8496 49.9324 54.6041 49.9324 54.3293C49.9324 54.0195 50.0139 53.7447 50.1768 53.5167C50.3397 53.2829 50.6016 53.0608 50.9565 52.8386C50.5201 52.6574 50.1594 52.3475 49.8859 51.9149C49.6124 51.4823 49.4728 50.9796 49.4728 50.4242C49.4728 49.4947 49.7521 48.7757 50.3048 48.2671C50.8634 47.7643 51.649 47.5071 52.673 47.5071C53.1153 47.5071 53.5168 47.5597 53.8717 47.6649H56.8043V47.6591ZM50.0546 57.6031C50.0546 58.0649 50.2466 58.4157 50.6365 58.6495C51.0205 58.8892 51.5791 59.0061 52.2948 59.0061C53.3713 59.0061 54.1685 58.8424 54.6863 58.5209C55.2042 58.1994 55.466 57.7609 55.466 57.2055C55.466 56.7437 55.3264 56.4222 55.0413 56.2468C54.7561 56.0656 54.2266 55.9779 53.4411 55.9779H51.8992C51.3173 55.9779 50.8634 56.1182 50.5376 56.3988C50.2117 56.6736 50.0546 57.0769 50.0546 57.6031ZM50.7471 50.3833C50.7471 50.9796 50.9158 51.4297 51.2475 51.7337C51.585 52.0377 52.0504 52.1897 52.644 52.1897C53.895 52.1897 54.5234 51.5759 54.5234 50.3599C54.5234 49.0796 53.8892 48.4424 52.6207 48.4424C52.0155 48.4424 51.5559 48.6061 51.23 48.9335C50.9042 49.2609 50.7471 49.7461 50.7471 50.3833Z" fill="white"></path><path d="M63.751 56.1733L63.495 54.9632H63.431C63.0062 55.4951 62.5873 55.8576 62.1683 56.0447C61.7494 56.2317 61.2257 56.3311 60.5973 56.3311C59.7594 56.3311 59.1019 56.1148 58.6248 55.6764C58.1476 55.2438 57.9091 54.6241 57.9091 53.8232C57.9091 52.1045 59.2765 51.2042 62.0112 51.1224L63.4485 51.0756V50.5495C63.4485 49.883 63.303 49.392 63.0179 49.0704C62.7328 48.7489 62.2731 48.5911 61.6447 48.5911C60.9406 48.5911 60.1376 48.8074 59.2474 49.2458L58.8517 48.2578C59.2706 48.0299 59.7245 47.8486 60.2249 47.72C60.7253 47.5914 61.2199 47.5271 61.7203 47.5271C62.7269 47.5271 63.4776 47.7551 63.9663 48.2052C64.4551 48.6554 64.6995 49.3744 64.6995 50.3741V56.1791H63.751V56.1733ZM60.8533 55.2672C61.6505 55.2672 62.2789 55.045 62.7328 54.6066C63.1866 54.1681 63.4194 53.5484 63.4194 52.7592V51.9876L62.1334 52.0402C61.1152 52.0753 60.3762 52.2331 59.9281 52.5196C59.4801 52.8002 59.2532 53.2386 59.2532 53.8349C59.2532 54.3026 59.3928 54.6533 59.6721 54.8989C59.9572 55.1444 60.3529 55.2672 60.8533 55.2672Z" fill="white"></path><path d="M68.6321 56.1708H67.352V44.0872H68.6321V56.1708Z" fill="white"></path><path d="M79.1343 56.1717H77.8193V45.9939H74.2408V44.8247H82.7128V45.9939H79.1343V56.1717Z" fill="white"></path><path d="M87.7978 56.3287C86.5468 56.3287 85.5576 55.9428 84.8361 55.177C84.1087 54.4112 83.748 53.3472 83.748 51.9851C83.748 50.6113 84.0855 49.5239 84.7546 48.7172C85.4296 47.9105 86.3315 47.5071 87.4661 47.5071C88.5251 47.5071 89.3689 47.8578 89.9856 48.5594C90.6024 49.2609 90.9108 50.1845 90.9108 51.3362V52.1546H85.0746C85.0979 53.1543 85.3539 53.9143 85.8311 54.4287C86.3082 54.949 86.9774 55.2062 87.8443 55.2062C88.7579 55.2062 89.6598 55.0133 90.55 54.6333V55.7791C90.0962 55.9779 89.6656 56.1182 89.2641 56.2C88.8568 56.2819 88.368 56.3287 87.7978 56.3287ZM87.4487 48.5827C86.7679 48.5827 86.2268 48.8049 85.8194 49.2492C85.418 49.6935 85.1794 50.3073 85.1037 51.0965H89.5318C89.5318 50.2839 89.3514 49.6642 88.9906 49.2316C88.6299 48.799 88.1178 48.5827 87.4487 48.5827Z" fill="white"></path><path d="M96.4839 56.3302C95.2562 56.3302 94.3077 55.9503 93.6328 55.1903C92.9578 54.4303 92.6262 53.3605 92.6262 51.975C92.6262 50.5544 92.9695 49.4495 93.6502 48.6779C94.331 47.9004 95.3027 47.5145 96.5654 47.5145C96.9727 47.5145 97.38 47.5613 97.7873 47.649C98.1946 47.7367 98.5146 47.8419 98.7474 47.9588L98.3517 49.052C98.0666 48.9351 97.7582 48.8416 97.4265 48.7656C97.0891 48.6896 96.7923 48.6545 96.5363 48.6545C94.814 48.6545 93.9528 49.7594 93.9528 51.9633C93.9528 53.0097 94.1623 53.8106 94.5812 54.3718C95.0002 54.9331 95.6228 55.2078 96.449 55.2078C97.1531 55.2078 97.8804 55.0558 98.6194 54.7518V55.8918C98.055 56.1782 97.3393 56.3302 96.4839 56.3302Z" fill="white"></path><path d="M106.427 56.1708V50.6639C106.427 49.9682 106.27 49.4538 105.956 49.1089C105.642 48.7639 105.147 48.5944 104.478 48.5944C103.588 48.5944 102.936 48.8399 102.529 49.3251C102.122 49.8104 101.912 50.6054 101.912 51.7162V56.1649H100.632V44.0872H101.912V47.7467C101.912 48.1852 101.889 48.5535 101.848 48.8399H101.924C102.174 48.4307 102.535 48.1092 103 47.8753C103.466 47.6415 103.995 47.5187 104.595 47.5187C105.63 47.5187 106.404 47.7643 106.928 48.2612C107.446 48.7581 107.702 49.5414 107.702 50.6171V56.1708H106.427Z" fill="white"></path><path d="M119.49 45.8378C118.251 45.8378 117.267 46.2528 116.551 47.083C115.836 47.9131 115.475 49.053 115.475 50.497C115.475 51.9819 115.824 53.1277 116.517 53.9403C117.209 54.7529 118.198 55.1562 119.478 55.1562C120.27 55.1562 121.166 55.0159 122.178 54.7295V55.887C121.393 56.1851 120.427 56.3313 119.28 56.3313C117.616 56.3313 116.33 55.8227 115.428 54.8113C114.521 53.8 114.073 52.356 114.073 50.4853C114.073 49.3161 114.288 48.2931 114.724 47.4103C115.161 46.5276 115.789 45.8495 116.61 45.3759C117.43 44.8966 118.396 44.6627 119.513 44.6627C120.7 44.6627 121.736 44.879 122.62 45.3175L122.062 46.4516C121.201 46.0424 120.345 45.8378 119.49 45.8378Z" fill="white"></path><path d="M131.749 51.9091C131.749 53.2946 131.4 54.3819 130.708 55.1595C130.015 55.937 129.049 56.3287 127.822 56.3287C127.065 56.3287 126.39 56.1474 125.802 55.7908C125.215 55.4342 124.761 54.9198 124.441 54.2533C124.121 53.5869 123.964 52.8035 123.964 51.9091C123.964 50.5236 124.307 49.4421 124.999 48.6704C125.692 47.8929 126.646 47.5071 127.874 47.5071C129.055 47.5071 129.998 47.9046 130.696 48.6938C131.406 49.4889 131.749 50.5587 131.749 51.9091ZM125.296 51.9091C125.296 52.9965 125.512 53.8266 125.948 54.3936C126.379 54.9665 127.019 55.2471 127.856 55.2471C128.694 55.2471 129.334 54.9665 129.771 54.3995C130.207 53.8324 130.422 53.0023 130.422 51.9091C130.422 50.8276 130.207 50.0033 129.771 49.4421C129.334 48.8809 128.694 48.6003 127.845 48.6003C127.007 48.6003 126.373 48.875 125.942 49.4304C125.512 49.9858 125.296 50.8101 125.296 51.9091Z" fill="white"></path><path d="M144.8 56.1703V50.6342C144.8 49.956 144.654 49.4474 144.363 49.1084C144.072 48.7693 143.624 48.5998 143.019 48.5998C142.222 48.5998 141.629 48.8278 141.25 49.2896C140.866 49.7514 140.68 50.4588 140.68 51.4175V56.1703H139.4V50.6342C139.4 49.956 139.255 49.4474 138.969 49.1084C138.679 48.7693 138.231 48.5998 137.62 48.5998C136.817 48.5998 136.229 48.8395 135.851 49.3247C135.478 49.8099 135.292 50.6049 135.292 51.704V56.1703H134.012V47.6586H135.054L135.263 48.8219H135.327C135.571 48.4069 135.909 48.0853 136.351 47.8515C136.793 47.6177 137.288 47.5007 137.829 47.5007C139.156 47.5007 140.017 47.9801 140.424 48.9447H140.488C140.738 48.5004 141.105 48.1496 141.588 47.8866C142.065 47.6293 142.612 47.5007 143.223 47.5007C144.183 47.5007 144.899 47.7463 145.376 48.2432C145.853 48.7401 146.092 49.5293 146.092 50.6166V56.1703H144.8Z" fill="white"></path><path d="M152.665 56.3281C152.112 56.3281 151.612 56.2229 151.152 56.0183C150.698 55.8137 150.314 55.498 150.006 55.0771H149.913C149.977 55.574 150.006 56.0475 150.006 56.4918V59.9936H148.726V47.6586H149.767L149.942 48.8219H150.006C150.337 48.3542 150.721 48.021 151.158 47.8106C151.594 47.606 152.1 47.5007 152.665 47.5007C153.788 47.5007 154.655 47.8866 155.266 48.6582C155.877 49.4299 156.179 50.5114 156.179 51.9027C156.179 53.2999 155.871 54.3873 155.248 55.159C154.626 55.9365 153.765 56.3281 152.665 56.3281ZM152.479 48.5998C151.612 48.5998 150.989 48.8395 150.599 49.3247C150.215 49.804 150.012 50.5699 150.006 51.6221V51.9086C150.006 53.1012 150.204 53.9605 150.599 54.475C150.995 54.9894 151.629 55.2466 152.508 55.2466C153.241 55.2466 153.811 54.9485 154.224 54.3522C154.637 53.7559 154.847 52.9375 154.847 51.8911C154.847 50.8329 154.637 50.0145 154.224 49.4474C153.811 48.8862 153.229 48.5998 152.479 48.5998Z" fill="white"></path><path d="M163.626 56.1733L163.37 54.9632H163.306C162.882 55.4951 162.463 55.8576 162.044 56.0447C161.625 56.2317 161.101 56.3311 160.473 56.3311C159.635 56.3311 158.977 56.1148 158.5 55.6764C158.023 55.2438 157.784 54.6241 157.784 53.8232C157.784 52.1045 159.152 51.2042 161.887 51.1224L163.324 51.0756V50.5495C163.324 49.883 163.178 49.392 162.893 49.0704C162.608 48.7489 162.148 48.5911 161.52 48.5911C160.816 48.5911 160.013 48.8074 159.123 49.2458L158.727 48.2578C159.146 48.0299 159.6 47.8486 160.1 47.72C160.601 47.5914 161.095 47.5271 161.596 47.5271C162.602 47.5271 163.353 47.7551 163.842 48.2052C164.33 48.6554 164.575 49.3744 164.575 50.3741V56.1791H163.626V56.1733ZM160.729 55.2672C161.526 55.2672 162.154 55.045 162.608 54.6066C163.062 54.1681 163.295 53.5484 163.295 52.7592V51.9876L162.009 52.0402C160.991 52.0753 160.252 52.2331 159.804 52.5196C159.355 52.8002 159.129 53.2386 159.129 53.8349C159.129 54.3026 159.268 54.6533 159.547 54.8989C159.827 55.1444 160.222 55.2672 160.729 55.2672Z" fill="white"></path><path d="M173.017 56.1703V50.6634C173.017 49.9677 172.86 49.4533 172.546 49.1084C172.232 48.7635 171.737 48.5939 171.068 48.5939C170.184 48.5939 169.532 48.8336 169.119 49.3188C168.706 49.7982 168.502 50.5932 168.502 51.704V56.1703H167.222V47.6586H168.264L168.473 48.8219H168.537C168.799 48.401 169.171 48.0795 169.643 47.8456C170.12 47.6176 170.643 47.5007 171.225 47.5007C172.244 47.5007 173.012 47.7463 173.529 48.2432C174.047 48.7401 174.303 49.5293 174.303 50.6166V56.1703H173.017Z" fill="white"></path><path d="M175.589 47.6611H176.962L178.818 52.5133C179.225 53.6182 179.475 54.4191 179.574 54.916H179.638C179.708 54.6529 179.848 54.1969 180.057 53.5597C180.273 52.9225 180.971 50.9524 182.158 47.6611H183.531L179.894 57.3537C179.534 58.3125 179.109 58.9906 178.632 59.394C178.149 59.7974 177.561 59.9961 176.857 59.9961C176.467 59.9961 176.077 59.9552 175.699 59.8617V58.8328C175.984 58.8971 176.298 58.9263 176.653 58.9263C177.532 58.9263 178.16 58.4294 178.539 57.4356L179.01 56.2255L175.589 47.6611Z" fill="white"></path></svg>