<svg xmlns="http://www.w3.org/2000/svg" xmlns:xlink="http://www.w3.org/1999/xlink" width="129.017" height="178.809" viewBox="0 0 129.017 178.809">
  <defs>
    <filter id="Ellipse_512" x="78.233" y="128.025" width="50.784" height="50.784" filterUnits="userSpaceOnUse">
      <feOffset dy="3" input="SourceAlpha"/>
      <feGaussianBlur stdDeviation="3" result="blur"/>
      <feFlood flood-opacity="0.161"/>
      <feComposite operator="in" in2="blur"/>
      <feComposite in="SourceGraphic"/>
    </filter>
  </defs>
  <g id="Tasks" transform="translate(-4765.36 -4233.392)">
    <g id="Gruppe_194" data-name="Gruppe 194" transform="translate(4719.92 4217)">
      <rect id="Rechteck_1662" data-name="Rechteck 1662" width="119.404" height="159.205" rx="4" transform="translate(45.44 16.392)" fill="#fff"/>
      <path id="Pfad_899" data-name="Pfad 899" d="M624.522,358.034H507.392a1.138,1.138,0,0,1-1.137-1.137V199.966a1.138,1.138,0,0,1,1.137-1.137H624.522a1.138,1.138,0,0,1,1.137,1.137V356.9A1.138,1.138,0,0,1,624.522,358.034ZM507.392,199.4a.569.569,0,0,0-.569.569V356.9a.569.569,0,0,0,.569.569H624.522a.569.569,0,0,0,.569-.569V199.966a.569.569,0,0,0-.569-.569Z" transform="translate(-460.815 -182.437)" fill="#cacaca"/>
      <path id="Path_2621" data-name="Path 2621" d="M647.467,313.465H563.884a2.132,2.132,0,0,1,0-4.264h83.583a2.132,2.132,0,1,1,0,4.264Z" transform="translate(-500.534 -261.431)" fill="#e6e6e6"/>
      <path id="Path_2624" data-name="Path 2624" d="M647.467,361.965H563.884a2.132,2.132,0,0,1,0-4.264h83.583a2.132,2.132,0,1,1,0,4.264Z" transform="translate(-500.534 -296.143)" fill="#e6e6e6"/>
      <path id="Path_2625" data-name="Path 2625" d="M647.467,410.465H563.884a2.132,2.132,0,0,1,0-4.264h83.583a2.132,2.132,0,1,1,0,4.264Z" transform="translate(-500.534 -330.854)" fill="#e6e6e6"/>
      <path id="Path_2626" data-name="Path 2626" d="M647.467,458.965H563.884a2.132,2.132,0,0,1,0-4.264h83.583a2.132,2.132,0,1,1,0,4.264Z" transform="translate(-500.534 -365.566)" fill="#e6e6e6"/>
      <path id="Path_2627" data-name="Path 2627" d="M647.467,507.465H563.884a2.132,2.132,0,0,1,0-4.264h83.583a2.132,2.132,0,1,1,0,4.264Z" transform="translate(-500.534 -400.278)" fill="#e6e6e6"/>
      <path id="Path_2622" data-name="Path 2622" d="M722.617,616.522H667.166c-.781,0-1.415-.955-1.415-2.132s.633-2.132,1.415-2.132h55.451c.781,0,1.415.955,1.415,2.132S723.4,616.522,722.617,616.522Z" transform="translate(-574.967 -478.33)" fill="#e6e6e6"/>
      <path id="Path_2623" data-name="Path 2623" d="M722.617,659.522H667.166c-.781,0-1.415-.955-1.415-2.132s.633-2.132,1.415-2.132h55.451c.781,0,1.415.955,1.415,2.132S723.4,659.522,722.617,659.522Z" transform="translate(-574.967 -509.106)" fill="#e6e6e6"/>
      <g id="Gruppe_197" data-name="Gruppe 197" transform="translate(-15.779 150.417)">
        <g transform="matrix(1, 0, 0, 1, 61.22, -134.02)" filter="url(#Ellipse_512)">
          <circle id="Ellipse_512-2" data-name="Ellipse 512" cx="16.392" cy="16.392" r="16.392" transform="translate(87.23 134.02)" fill="#0a3250"/>
        </g>
        <path id="plus-solid_2_" data-name="plus-solid (2)" d="M16.714,39.071H10.929V33.286A1.286,1.286,0,0,0,9.643,32H8.357a1.286,1.286,0,0,0-1.286,1.286v5.786H1.286A1.286,1.286,0,0,0,0,40.357v1.286a1.286,1.286,0,0,0,1.286,1.286H7.071v5.786A1.286,1.286,0,0,0,8.357,50H9.643a1.286,1.286,0,0,0,1.286-1.286V42.929h5.786A1.286,1.286,0,0,0,18,41.643V40.357A1.286,1.286,0,0,0,16.714,39.071Z" transform="translate(155.844 -23.788)" fill="#fff"/>
      </g>
    </g>
  </g>
</svg>
