<svg xmlns="http://www.w3.org/2000/svg" width="135.405" height="119.246" viewBox="0 0 135.405 119.246">
  <g id="Device_registration" data-name="Device registration" transform="translate(-253.404 -62.152)">
    <path id="Pfad_831" data-name="Pfad 831" d="M516.641,390.023a10,10,0,0,1-.926-.771l.4-.426a9.441,9.441,0,0,0,.872.726Z" transform="translate(-235.232 -292.225)" fill="#e4e4e4"/>
    <path id="Pfad_832" data-name="Pfad 832" d="M501.312,322.2a9.856,9.856,0,0,1-1.051-2.309l.559-.172a9.274,9.274,0,0,0,.988,2.172Zm-1.48-4.81q-.009-.207-.009-.415a9.877,9.877,0,0,1,.229-2.112l.571.125a9.294,9.294,0,0,0-.215,1.987q0,.2.008.39Zm1.6-4.647-.52-.268a9.975,9.975,0,0,1,.832-1.342,8.083,8.083,0,0,1,.62-.745l.426.4a7.5,7.5,0,0,0-.575.691,9.392,9.392,0,0,0-.783,1.263Zm3.234-3.391-.276-.515A7.959,7.959,0,0,1,506.8,308l.1.576a7.372,7.372,0,0,0-2.236.768Zm6.85-.064a7.306,7.306,0,0,0-2.249-.728l.088-.578a7.889,7.889,0,0,1,2.428.786Z" transform="translate(-222.438 -227.133)" fill="#e4e4e4"/>
    <path id="Pfad_833" data-name="Pfad 833" d="M570.161,321.243a5.816,5.816,0,0,0-.662-.893l.434-.391a6.4,6.4,0,0,1,.728.983Z" transform="translate(-278.535 -236.778)" fill="#e4e4e4"/>
    <path id="Pfad_834" data-name="Pfad 834" d="M455.94,289.341l-.471-.346c.234-.318.48-.633.733-.935l.449.375C456.406,288.728,456.167,289.033,455.94,289.341Z" transform="translate(-186.727 -211.096)" fill="#e4e4e4"/>
    <path id="Pfad_837" data-name="Pfad 837" d="M622.479,478.931l-.2-.549c.36-.132.723-.273,1.079-.419l.223.541C623.217,478.653,622.847,478.8,622.479,478.931Z" transform="translate(-321.028 -363.99)" fill="#e4e4e4"/>
    <path id="Pfad_838" data-name="Pfad 838" d="M503.707,469.144l-.021-.584c.759-.028,1.525-.086,2.279-.173l.067.581C505.262,469.057,504.48,469.116,503.707,469.144Zm-2.331-.007c-.775-.033-1.556-.1-2.324-.191l.071-.58c.752.092,1.518.154,2.277.187Zm6.959-.527-.112-.574c.745-.146,1.493-.323,2.224-.527l.157.563c-.746.208-1.509.389-2.269.538Zm-11.584-.037c-.759-.154-1.521-.341-2.264-.555l.162-.562c.729.21,1.476.393,2.219.544Zm-4.478-1.288c-.725-.272-1.447-.577-2.148-.907l.249-.529c.687.323,1.395.622,2.105.889Zm-4.217-1.981c-.67-.382-1.336-.8-1.978-1.233l.328-.484c.629.427,1.282.834,1.939,1.209Z" transform="translate(-211.371 -352.417)" fill="#e4e4e4"/>
    <path id="Pfad_839" data-name="Pfad 839" d="M472.718,453.933c-.3-.249-.607-.508-.9-.771l.392-.434c.284.256.579.509.876.752Z" transform="translate(-199.891 -343.674)" fill="#e4e4e4"/>
    <path id="Pfad_843" data-name="Pfad 843" d="M551.764,693.643q-.582-.075-1.162-.159l.084-.579q.576.083,1.153.158Z" transform="translate(-263.32 -537.045)" fill="#e4e4e4"/>
    <path id="Pfad_860" data-name="Pfad 860" d="M613.594,330.374l-59.336-21.329a5.643,5.643,0,0,1-3.4-7.211l30.932-86.051a5.643,5.643,0,0,1,7.211-3.4l59.336,21.329a5.643,5.643,0,0,1,3.4,7.211l-30.932,86.051A5.643,5.643,0,0,1,613.594,330.374Z" transform="translate(-263.261 -149.901)" fill="#0a3250"/>
    <path id="Pfad_861" data-name="Pfad 861" d="M630.168,341.8l-59.545-21.4a1.74,1.74,0,0,1-1.047-2.223l31.137-86.621a1.74,1.74,0,0,1,2.223-1.047l59.545,21.4a1.74,1.74,0,0,1,1.047,2.223l-31.137,86.621a1.74,1.74,0,0,1-2.223,1.047Z" transform="translate(-278.514 -164.678)" fill="#fff"/>
    <circle id="Ellipse_194" data-name="Ellipse 194" cx="0.48" cy="0.48" r="0.48" transform="translate(354.122 74.212)" fill="#fff"/>
    <g id="Gruppe_184" data-name="Gruppe 184" transform="translate(253.404 70.098)">
      <path id="Pfad_858" data-name="Pfad 858" d="M232.322,92.964l-.436.134L228.21,81.16a7.23,7.23,0,0,0-9.037-4.783h0l-25.294,7.788A7.23,7.23,0,0,0,189.1,93.2h0l20.165,65.5a7.23,7.23,0,0,0,9.037,4.783h0l25.294-7.788a7.23,7.23,0,0,0,4.783-9.037h0L234.5,101.6l.436-.134Z" transform="translate(-188.774 -76.055)" fill="#0a3250"/>
      <path id="Pfad_859" data-name="Pfad 859" d="M228.28,85.5l-3.3,1.017a2.565,2.565,0,0,1-1.23,4.076l-14.491,4.461a2.565,2.565,0,0,1-3.31-2.679l-3.084.949a5.4,5.4,0,0,0-3.572,6.749l20.136,65.4a5.4,5.4,0,0,0,6.749,3.572h0l25.416-7.825a5.4,5.4,0,0,0,3.572-6.749h0l-20.136-65.4A5.4,5.4,0,0,0,228.28,85.5Z" transform="translate(-197.049 -83.464)" fill="#fff"/>
      <circle id="Ellipse_195" data-name="Ellipse 195" cx="12.95" cy="12.95" r="12.95" transform="translate(11.798 42.995) rotate(-45)" fill="#00a18a"/>
      <path id="Pfad_862" data-name="Pfad 862" d="M252.765,196.269l-6.41-4.348.56-.825,5.306,3.6,3.835-12,.949.3Z" transform="translate(-221.718 -146.917)" fill="#fff"/>
    </g>
    <circle id="Ellipse_196" data-name="Ellipse 196" cx="16.402" cy="16.402" r="16.402" transform="translate(314.889 120.348) rotate(-45)" fill="#00a18a"/>
    <path id="Pfad_863" data-name="Pfad 863" d="M710.258,429.091l-2.355-9.523,1.225-.3,1.95,7.884L724.85,419.1l.637,1.089Z" transform="translate(-376.13 -301.775)" fill="#fff"/>
    <path id="Pfad_874" data-name="Pfad 874" d="M881.052,822.335h-134.7c-.2,0-.354-.087-.354-.195s.158-.195.354-.195h134.7c.2,0,.353.087.353.195S881.247,822.335,881.052,822.335Z" transform="translate(-492.596 -640.937)" fill="#cacaca"/>
    <path id="Pfad_875" data-name="Pfad 875" d="M903.684,560.707a1.469,1.469,0,0,0,0-2.252l-1.092-19.22-3.116.7,2.06,18.77a1.477,1.477,0,0,0,2.148,2Z" transform="translate(-544.206 -413.321)" fill="#9f616a"/>
    <path id="Pfad_876" data-name="Pfad 876" d="M983.65,573.443a1.469,1.469,0,0,1-.081-2.251l.4-19.246,3.139.591-1.379,18.833a1.477,1.477,0,0,1-2.075,2.074Z" transform="translate(-611.519 -423.556)" fill="#9f616a"/>
    <path id="Pfad_877" data-name="Pfad 877" d="M923.515,709.417h2.445l.7-5.7h-3.142Z" transform="translate(-549.723 -530.925)" fill="#9f616a"/>
    <path id="Pfad_878" data-name="Pfad 878" d="M991.317,804.937h4.815A3.068,3.068,0,0,1,999.2,808v.1h-7.883Z" transform="translate(-618.149 -627.244)" fill="#0a3250"/>
    <path id="Pfad_879" data-name="Pfad 879" d="M845.238,694.022h2.445l.7-9.429h-3.142Z" transform="translate(-486.701 -515.531)" fill="#9f616a"/>
    <path id="Pfad_880" data-name="Pfad 880" d="M913.04,804.937h4.815A3.068,3.068,0,0,1,920.923,808v.1H913.04Z" transform="translate(-555.126 -627.244)" fill="#0a3250"/>
    <circle id="Ellipse_198" data-name="Ellipse 198" cx="3.999" cy="3.999" r="3.999" transform="translate(364.385 109.623)" fill="#9f616a"/>
    <path id="Pfad_881" data-name="Pfad 881" d="M983.064,523.522s1.778.148,1.926,1.037a27.481,27.481,0,0,1,0,3.555s1.185,3.555,0,4.444-4.3,1.037-4.3,1.037Z" transform="translate(-609.596 -400.671)" fill="#e4e4e4"/>
    <path id="Pfad_882" data-name="Pfad 882" d="M908.593,626.9l-1.629,2.666s.593,11.7.741,12a.891.891,0,0,1,.148.593v1.629L908.3,658s-1.185.593.3,1.037,3.407.593,3.7-.889.31-13.822.3-14.22l.148-.593,2.37-8.74,5.481,12.147,3.259,13.628s4.932.57,4.043-1.356-3.006-16.271-3.006-16.271a15.375,15.375,0,0,1-.444-1.778c0-.3-.148-.444-.148-.741s-.148-1.185-.148-1.185l-1.037-9.332Z" transform="translate(-550.234 -483.898)" fill="#4e5155"/>
    <path id="Pfad_883" data-name="Pfad 883" d="M899.268,510.583s-1.778-.148-2.222,1.333-4.148,7.11-3.407,7.7a33.92,33.92,0,0,0,6.518,2.518C900.3,521.989,899.268,510.583,899.268,510.583Z" transform="translate(-539.428 -390.25)" fill="#e4e4e4"/>
    <path id="Pfad_884" data-name="Pfad 884" d="M952.549,450.2a3.34,3.34,0,0,0-.886-1.681,2.759,2.759,0,0,0-1.768-.7,5.49,5.49,0,0,0-4.951-.281.906.906,0,0,0-.394-.4l-.143,1.234-.551-.415q-.014.365-.027.73l-.505-.434a2.106,2.106,0,0,0,1.493,1.9,6.588,6.588,0,0,0,2.563.2,1.484,1.484,0,0,1,1.2.3,1.886,1.886,0,0,1,.252,1.281c.01.628.655.32.978.858a1.219,1.219,0,0,1,.251.617,1.44,1.44,0,0,1-.217.572,4.882,4.882,0,0,0-.485,2.517l1.254-.7S953.362,453.222,952.549,450.2Z" transform="translate(-579.507 -339.126)" fill="#2f2e41"/>
    <path id="Pfad_885" data-name="Pfad 885" d="M926.177,512.923s2.963-7.555,2.814-8.147-3.844-3.024-3.844-3.024l-.409-.051a.671.671,0,0,0,.041-.162l.064-.58a.683.683,0,0,0-.6-.753l-4.7-.515a.683.683,0,0,0-.753.6l-.055.5c-.248-.061-.259-.086-.259-.086s-4.148.658-5.185.954-.148,11.554-.148,11.554-.741,10.369-1.185,10.665,0,.148-.444,1.333c-.059.156.76-.716,1.111-.519,2.311,1.3,11.683,4.35,14,4.222.74-7.723-.741-10.221-.741-10.221Z" transform="translate(-553.894 -381.48)" fill="#e4e4e4"/>
  </g>
</svg>
