<?xml version="1.0" encoding="utf-8"?>
<!-- Generator: Adobe Illustrator 26.1.0, SVG Export Plug-In . SVG Version: 6.00 Build 0)  -->
<svg version="1.1" id="Ebene_1" xmlns="http://www.w3.org/2000/svg" xmlns:xlink="http://www.w3.org/1999/xlink" x="0px" y="0px"
	 viewBox="0 0 512 512" style="enable-background:new 0 0 512 512;" xml:space="preserve">
<style type="text/css">
	.st0{fill:#FFFFFF;}
</style>
<path class="st0" d="M256,0C114.6,0,0,114.6,0,256s114.6,256,256,256s256-114.6,256-256S397.4,0,256,0z M256,128
	c17.7,0,32,14.3,32,32s-14.3,32-32,32s-32-14.3-32-32S238.3,128,256,128z M296,384h-80c-13.2,0-24-10.7-24-24s10.8-24,24-24h16v-64
	h-8c-13.2,0-24-10.8-24-24s10.8-24,24-24h32c13.2,0,24,10.8,24,24v88h16c13.2,0,24,10.8,24,24S309.3,384,296,384z"/>
</svg>
