<?xml version="1.0" encoding="utf-8"?>
<!-- Generator: Adobe Illustrator 25.2.2, SVG Export Plug-In . SVG Version: 6.00 Build 0)  -->
<svg version="1.1" id="Ebene_1" xmlns="http://www.w3.org/2000/svg" xmlns:xlink="http://www.w3.org/1999/xlink" x="0px" y="0px"
	 viewBox="0 0 841.9 595.3" style="enable-background:new 0 0 841.9 595.3;" xml:space="preserve">
<style type="text/css">
	.st0{fill:#193351;}
	.st1{fill:#676C6E;}
</style>
<g>
	<polygon class="st0" points="463.2,326.2 463.2,269.1 480.3,269.1 480.3,326.2 463.2,326.2 	"/>
	<polygon class="st0" points="488,316.4 488,269.1 505,269.1 505,316.4 488,316.4 	"/>
	<polygon class="st0" points="512.7,306.5 512.7,269.1 529.8,269.1 529.8,306.5 512.7,306.5 	"/>
	<polygon class="st0" points="537.4,296.6 537.4,269.1 554.5,269.1 554.5,296.6 537.4,296.6 	"/>
	<polygon class="st0" points="562.2,286.8 562.2,269.1 579.2,269.1 579.2,286.8 562.2,286.8 	"/>
	<g>
		<path class="st1" d="M303.6,296.3l-15.1-2.3c-14-2.2-17.3-5.2-17.1-11.3c0.2-6.6,6.2-11.7,24.2-11.7c19.4,0,23.9,7.7,24.4,14.3
			h4.8c-0.2-12.2-11.8-17.5-30.4-17.5c-18.3,0-28.1,6.2-28.3,14.8c-0.3,8.6,5.8,12.3,21.9,15l13.7,2.2c15.4,2.5,19.3,5.4,19.1,11.8
			c-0.2,6.7-7,12.7-25.1,12.7c-19.8,0-28-6.3-27.8-17H263c-0.4,12.1,8.7,20.2,32.9,20.2c23,0,29.9-8.4,30.1-16.2
			C326.2,302.2,318.3,298.5,303.6,296.3z"/>
		<path class="st1" d="M421.2,269.1h-36.3h-6.4h-60.5c3,1.7,5.6,4.1,7.3,7.4l20.3,0v49.8h11.1v-49.8h21.9l0,49.8h18.7v-20.4h25.6
			c15.7,0,22.7-7.2,22.7-19.4C445.4,278.7,441.5,269.1,421.2,269.1z M414.9,295.4h-17.8v-15.9h19.6c5.5,0,11.1,0.6,11.1,8.1
			C427.8,295.2,420.9,295.4,414.9,295.4z"/>
	</g>
</g>
</svg>
