<?xml version="1.0" encoding="utf-8"?>
<!-- Generator: Adobe Illustrator 26.1.0, SVG Export Plug-In . SVG Version: 6.00 Build 0)  -->
<svg version="1.1" id="Ebene_1" xmlns="http://www.w3.org/2000/svg" xmlns:xlink="http://www.w3.org/1999/xlink" x="0px" y="0px"
	 viewBox="0 0 512 512" style="enable-background:new 0 0 512 512;" xml:space="preserve">
<style type="text/css">
	.st0{fill:#FFFFFF;}
</style>
<path class="st0" d="M160,416H96c-17.7,0-32-14.3-32-32V128c0-17.7,14.3-32,32-32h64c17.7,0,32-14.3,32-32s-14.3-32-32-32H96
	C43,32,0,75,0,128v256c0,53,43,96,96,96h64c17.7,0,32-14.3,32-32S177.7,416,160,416z M502.6,233.4l-128-128
	c-12.5-12.5-32.8-12.5-45.2,0c-12.5,12.5-12.5,32.8,0,45.2l73.4,73.4H192c-17.7,0-32,14.3-32,32s14.3,32,32,32h210.8l-73.4,73.4
	c-12.5,12.5-12.5,32.8,0,45.2s32.8,12.5,45.2,0l128-128C515.1,266.1,515.1,245.9,502.6,233.4z"/>
</svg>
