<?xml version="1.0" encoding="utf-8"?>
<!-- Generator: Adobe Illustrator 23.0.2, SVG Export Plug-In . SVG Version: 6.00 Build 0)  -->
<svg version="1.1" id="Ebene_1" xmlns="http://www.w3.org/2000/svg" xmlns:xlink="http://www.w3.org/1999/xlink" x="0px" y="0px"
	 viewBox="0 0 841.89 595.28" style="enable-background:new 0 0 841.89 595.28;" xml:space="preserve">
<style type="text/css">
	.st0{fill:#193351;}
	.st1{fill:#676C6E;}
</style>
<polygon class="st0" points="446.56,212.44 446.56,177.76 456.9,177.76 456.9,212.44 446.56,212.44 "/>
<polygon class="st0" points="461.56,206.45 461.56,177.76 471.9,177.76 471.9,206.45 461.56,206.45 "/>
<polygon class="st0" points="476.56,200.47 476.56,177.76 486.9,177.76 486.9,200.47 476.56,200.47 "/>
<polygon class="st0" points="491.56,194.49 491.56,177.76 501.9,177.76 501.9,194.49 491.56,194.49 "/>
<polygon class="st0" points="506.56,188.51 506.56,177.76 516.9,177.76 516.9,188.51 506.56,188.51 "/>
<g>
	<path class="st1" d="M349.73,194.27l-9.17-1.41c-8.48-1.31-10.49-3.16-10.38-6.85c0.12-3.98,3.78-7.09,14.69-7.09
		c11.78,0,14.52,4.66,14.78,8.65h2.88c-0.09-7.38-7.14-10.59-18.42-10.59c-11.09,0-17.03,3.79-17.19,8.99
		c-0.16,5.25,3.53,7.48,13.26,9.08l8.29,1.36c9.35,1.51,11.68,3.25,11.57,7.14c-0.12,4.08-4.24,7.72-15.21,7.72
		c-12.03,0-16.99-3.84-16.86-10.3h-2.88c-0.22,7.33,5.27,12.24,19.93,12.24c13.97,0,18.14-5.1,18.28-9.81
		C363.47,197.86,358.65,195.63,349.73,194.27z"/>
	<path class="st1" d="M421.04,177.76h-62.64c1.84,1.06,3.37,2.51,4.43,4.47l12.3,0v30.21h6.73v-30.21h13.26l0,30.21h11.32v-12.39
		h15.52c9.53,0,13.79-4.37,13.79-11.75C435.74,183.63,433.36,177.76,421.04,177.76z M417.22,193.74h-10.79v-9.67h11.89
		c3.34,0,6.76,0.39,6.76,4.91C425.07,193.64,420.87,193.74,417.22,193.74z"/>
</g>
<g>
	<path class="st1" d="M330.32,235.49h-1.38v-10.63h-3.75v-1.22h8.89v1.22h-3.75V235.49z"/>
	<path class="st1" d="M341.74,235.49v-5.75c0-0.72-0.16-1.27-0.49-1.62c-0.33-0.36-0.85-0.54-1.55-0.54c-0.94,0-1.62,0.25-2.05,0.76
		c-0.43,0.51-0.64,1.34-0.64,2.5v4.65h-1.35v-12.62h1.35v3.82c0,0.46-0.02,0.84-0.07,1.14h0.08c0.26-0.43,0.64-0.76,1.13-1.01
		c0.49-0.25,1.05-0.37,1.67-0.37c1.09,0,1.9,0.26,2.45,0.77c0.54,0.52,0.81,1.34,0.81,2.46v5.8H341.74z"/>
	<path class="st1" d="M349.61,235.65c-1.31,0-2.35-0.4-3.11-1.2c-0.76-0.8-1.14-1.91-1.14-3.33c0-1.43,0.35-2.57,1.06-3.41
		s1.65-1.27,2.84-1.27c1.11,0,2,0.37,2.64,1.1c0.65,0.73,0.97,1.7,0.97,2.9v0.85h-6.12c0.03,1.04,0.29,1.84,0.79,2.38
		c0.5,0.54,1.2,0.81,2.11,0.81c0.96,0,1.9-0.2,2.84-0.6v1.2c-0.48,0.21-0.93,0.35-1.35,0.44
		C350.72,235.6,350.21,235.65,349.61,235.65z M349.24,227.56c-0.71,0-1.28,0.23-1.71,0.7c-0.42,0.46-0.67,1.11-0.75,1.93h4.65
		c0-0.85-0.19-1.5-0.57-1.95C350.48,227.79,349.94,227.56,349.24,227.56z"/>
	<path class="st1" d="M359.68,235.49v-11.85h1.38v10.61h5.23v1.25H359.68z"/>
	<path class="st1" d="M371.85,235.65c-1.31,0-2.35-0.4-3.11-1.2c-0.76-0.8-1.14-1.91-1.14-3.33c0-1.43,0.35-2.57,1.06-3.41
		c0.71-0.84,1.65-1.27,2.84-1.27c1.11,0,2,0.37,2.64,1.1c0.65,0.73,0.97,1.7,0.97,2.9v0.85H369c0.03,1.04,0.29,1.84,0.79,2.38
		c0.5,0.54,1.2,0.81,2.11,0.81c0.96,0,1.9-0.2,2.84-0.6v1.2c-0.48,0.21-0.93,0.35-1.35,0.44
		C372.97,235.6,372.46,235.65,371.85,235.65z M371.49,227.56c-0.71,0-1.28,0.23-1.71,0.7c-0.42,0.46-0.67,1.11-0.75,1.93h4.65
		c0-0.85-0.19-1.5-0.57-1.95C372.73,227.79,372.19,227.56,371.49,227.56z"/>
	<path class="st1" d="M384.69,226.6v0.85l-1.65,0.19c0.15,0.19,0.29,0.44,0.41,0.74c0.12,0.31,0.18,0.65,0.18,1.03
		c0,0.87-0.3,1.56-0.89,2.08c-0.6,0.52-1.41,0.78-2.45,0.78c-0.26,0-0.51-0.02-0.75-0.06c-0.57,0.3-0.86,0.68-0.86,1.14
		c0,0.24,0.1,0.42,0.3,0.54c0.2,0.12,0.54,0.17,1.03,0.17h1.57c0.96,0,1.7,0.2,2.22,0.61c0.52,0.41,0.77,0.99,0.77,1.77
		c0,0.98-0.39,1.73-1.18,2.25c-0.79,0.52-1.94,0.77-3.45,0.77c-1.16,0-2.06-0.22-2.69-0.65c-0.63-0.43-0.94-1.04-0.94-1.83
		c0-0.54,0.17-1.01,0.52-1.4c0.35-0.39,0.83-0.66,1.46-0.8c-0.23-0.1-0.42-0.26-0.57-0.48c-0.15-0.22-0.23-0.47-0.23-0.75
		c0-0.32,0.09-0.61,0.26-0.85c0.17-0.24,0.45-0.48,0.82-0.71c-0.46-0.19-0.83-0.51-1.12-0.97c-0.29-0.45-0.43-0.97-0.43-1.56
		c0-0.97,0.29-1.72,0.87-2.25c0.58-0.53,1.41-0.79,2.48-0.79c0.46,0,0.88,0.05,1.26,0.16H384.69z M377.6,236.98
		c0,0.48,0.2,0.85,0.61,1.09c0.41,0.25,0.99,0.37,1.74,0.37c1.13,0,1.97-0.17,2.51-0.51s0.82-0.8,0.82-1.37c0-0.48-0.15-0.82-0.45-1
		c-0.3-0.19-0.86-0.28-1.68-0.28h-1.61c-0.61,0-1.09,0.15-1.43,0.44C377.77,236.01,377.6,236.43,377.6,236.98z M378.33,229.44
		c0,0.62,0.18,1.09,0.53,1.41c0.35,0.32,0.84,0.48,1.47,0.48c1.31,0,1.97-0.64,1.97-1.91c0-1.34-0.67-2-2-2
		c-0.63,0-1.12,0.17-1.46,0.51C378.5,228.27,378.33,228.77,378.33,229.44z"/>
	<path class="st1" d="M391.98,235.49l-0.27-1.27h-0.06c-0.44,0.56-0.89,0.93-1.33,1.13c-0.44,0.2-0.99,0.3-1.65,0.3
		c-0.88,0-1.57-0.23-2.07-0.68s-0.75-1.1-0.75-1.94c0-1.79,1.43-2.74,4.3-2.82l1.51-0.05v-0.55c0-0.7-0.15-1.21-0.45-1.54
		c-0.3-0.33-0.78-0.5-1.44-0.5c-0.74,0-1.58,0.23-2.51,0.68l-0.41-1.03c0.44-0.24,0.92-0.42,1.44-0.56c0.52-0.14,1.05-0.2,1.57-0.2
		c1.06,0,1.84,0.24,2.36,0.71c0.51,0.47,0.77,1.22,0.77,2.26v6.06H391.98z M388.94,234.54c0.84,0,1.5-0.23,1.97-0.69
		c0.48-0.46,0.72-1.1,0.72-1.93v-0.8l-1.35,0.06c-1.07,0.04-1.84,0.2-2.31,0.5c-0.47,0.29-0.71,0.75-0.71,1.37
		c0,0.49,0.15,0.86,0.44,1.11C388,234.41,388.41,234.54,388.94,234.54z"/>
	<path class="st1" d="M397.1,235.49h-1.35v-12.62h1.35V235.49z"/>
	<path class="st1" d="M408.12,235.49h-1.38v-10.63h-3.75v-1.22h8.89v1.22h-3.75V235.49z"/>
	<path class="st1" d="M417.21,235.65c-1.31,0-2.35-0.4-3.11-1.2c-0.76-0.8-1.14-1.91-1.14-3.33c0-1.43,0.35-2.57,1.06-3.41
		s1.65-1.27,2.84-1.27c1.11,0,2,0.37,2.64,1.1c0.65,0.73,0.97,1.7,0.97,2.9v0.85h-6.12c0.03,1.04,0.29,1.84,0.79,2.38
		c0.5,0.54,1.2,0.81,2.11,0.81c0.96,0,1.9-0.2,2.84-0.6v1.2c-0.48,0.21-0.93,0.35-1.35,0.44
		C418.32,235.6,417.81,235.65,417.21,235.65z M416.84,227.56c-0.71,0-1.28,0.23-1.71,0.7c-0.42,0.46-0.67,1.11-0.75,1.93h4.65
		c0-0.85-0.19-1.5-0.57-1.95C418.08,227.79,417.54,227.56,416.84,227.56z"/>
	<path class="st1" d="M426.32,235.65c-1.29,0-2.28-0.4-2.99-1.19c-0.71-0.79-1.06-1.91-1.06-3.36c0-1.49,0.36-2.64,1.08-3.45
		c0.72-0.81,1.74-1.22,3.06-1.22c0.43,0,0.85,0.05,1.28,0.14c0.43,0.09,0.76,0.2,1.01,0.32l-0.41,1.14c-0.3-0.12-0.62-0.22-0.97-0.3
		c-0.35-0.08-0.66-0.12-0.93-0.12c-1.81,0-2.71,1.15-2.71,3.45c0,1.09,0.22,1.93,0.66,2.51c0.44,0.58,1.09,0.87,1.96,0.87
		c0.74,0,1.5-0.16,2.28-0.48v1.19C427.97,235.49,427.22,235.65,426.32,235.65z"/>
	<path class="st1" d="M436.75,235.49v-5.75c0-0.72-0.16-1.27-0.49-1.62c-0.33-0.36-0.85-0.54-1.55-0.54c-0.94,0-1.62,0.25-2.05,0.76
		c-0.43,0.51-0.64,1.34-0.64,2.5v4.65h-1.35v-12.62h1.35v3.82c0,0.46-0.02,0.84-0.07,1.14h0.08c0.26-0.43,0.64-0.76,1.13-1.01
		c0.49-0.25,1.05-0.37,1.67-0.37c1.09,0,1.9,0.26,2.45,0.77c0.54,0.52,0.81,1.34,0.81,2.46v5.8H436.75z"/>
	<path class="st1" d="M450.46,224.69c-1.3,0-2.33,0.43-3.08,1.3c-0.75,0.87-1.13,2.06-1.13,3.56c0,1.55,0.36,2.75,1.09,3.6
		c0.73,0.85,1.76,1.27,3.11,1.27c0.83,0,1.77-0.15,2.83-0.45v1.21c-0.82,0.31-1.84,0.46-3.04,0.46c-1.75,0-3.09-0.53-4.04-1.59
		c-0.95-1.06-1.42-2.56-1.42-4.52c0-1.22,0.23-2.29,0.68-3.21s1.12-1.63,1.98-2.12c0.86-0.5,1.88-0.75,3.04-0.75
		c1.24,0,2.33,0.23,3.26,0.68l-0.58,1.18C452.25,224.9,451.36,224.69,450.46,224.69z"/>
	<path class="st1" d="M463.33,231.03c0,1.45-0.36,2.58-1.09,3.39c-0.73,0.81-1.74,1.22-3.02,1.22c-0.79,0-1.5-0.19-2.12-0.56
		c-0.62-0.37-1.09-0.91-1.43-1.6c-0.34-0.7-0.5-1.51-0.5-2.45c0-1.45,0.36-2.58,1.09-3.38c0.72-0.81,1.73-1.21,3.02-1.21
		c1.24,0,2.23,0.41,2.96,1.24C462.96,228.51,463.33,229.62,463.33,231.03z M456.55,231.03c0,1.13,0.23,2,0.68,2.59
		c0.45,0.6,1.12,0.89,2,0.89c0.88,0,1.55-0.3,2.01-0.89c0.46-0.59,0.69-1.46,0.69-2.6c0-1.13-0.23-1.99-0.69-2.57
		c-0.46-0.59-1.13-0.88-2.02-0.88c-0.88,0-1.55,0.29-1.99,0.87C456.78,229.03,456.55,229.89,456.55,231.03z"/>
	<path class="st1" d="M477.01,235.49v-5.78c0-0.71-0.15-1.24-0.46-1.59c-0.3-0.35-0.77-0.53-1.41-0.53c-0.84,0-1.46,0.24-1.86,0.72
		c-0.4,0.48-0.6,1.22-0.6,2.22v4.96h-1.35v-5.78c0-0.71-0.15-1.24-0.45-1.59c-0.3-0.35-0.78-0.53-1.42-0.53
		c-0.84,0-1.46,0.25-1.85,0.76c-0.39,0.51-0.59,1.33-0.59,2.49v4.66h-1.35v-8.89h1.09l0.22,1.22h0.06c0.25-0.43,0.61-0.77,1.08-1.01
		c0.46-0.24,0.98-0.36,1.55-0.36c1.39,0,2.3,0.5,2.72,1.51h0.06c0.26-0.46,0.65-0.83,1.15-1.1c0.5-0.27,1.08-0.41,1.72-0.41
		c1.01,0,1.76,0.26,2.26,0.77c0.5,0.52,0.75,1.34,0.75,2.48v5.8H477.01z"/>
	<path class="st1" d="M485.27,235.65c-0.58,0-1.11-0.11-1.59-0.32c-0.48-0.21-0.88-0.54-1.2-0.98h-0.1c0.06,0.52,0.1,1.01,0.1,1.48
		v3.66h-1.35V226.6h1.09l0.19,1.22h0.07c0.35-0.49,0.75-0.84,1.21-1.05c0.46-0.22,0.99-0.32,1.58-0.32c1.18,0,2.09,0.4,2.73,1.21
		c0.64,0.81,0.96,1.94,0.96,3.39c0,1.46-0.33,2.59-0.98,3.4C487.33,235.24,486.42,235.65,485.27,235.65z M485.07,227.58
		c-0.91,0-1.56,0.25-1.97,0.75c-0.41,0.5-0.61,1.3-0.62,2.4v0.3c0,1.25,0.21,2.14,0.62,2.68c0.42,0.54,1.08,0.81,2,0.81
		c0.77,0,1.37-0.31,1.8-0.93c0.44-0.62,0.65-1.48,0.65-2.57c0-1.11-0.22-1.96-0.65-2.55C486.47,227.88,485.86,227.58,485.07,227.58z
		"/>
	<path class="st1" d="M496.77,235.49l-0.27-1.27h-0.06c-0.44,0.56-0.89,0.93-1.33,1.13c-0.44,0.2-0.99,0.3-1.65,0.3
		c-0.88,0-1.57-0.23-2.07-0.68c-0.5-0.45-0.75-1.1-0.75-1.94c0-1.79,1.43-2.74,4.3-2.82l1.51-0.05v-0.55c0-0.7-0.15-1.21-0.45-1.54
		c-0.3-0.33-0.78-0.5-1.44-0.5c-0.74,0-1.58,0.23-2.51,0.68l-0.41-1.03c0.44-0.24,0.92-0.42,1.44-0.56c0.52-0.14,1.05-0.2,1.57-0.2
		c1.06,0,1.84,0.24,2.36,0.71c0.51,0.47,0.77,1.22,0.77,2.26v6.06H496.77z M493.73,234.54c0.84,0,1.5-0.23,1.97-0.69
		c0.48-0.46,0.72-1.1,0.72-1.93v-0.8l-1.35,0.06c-1.07,0.04-1.84,0.2-2.31,0.5c-0.47,0.29-0.71,0.75-0.71,1.37
		c0,0.49,0.15,0.86,0.44,1.11C492.79,234.41,493.2,234.54,493.73,234.54z"/>
	<path class="st1" d="M506.62,235.49v-5.75c0-0.72-0.16-1.27-0.49-1.62c-0.33-0.36-0.85-0.54-1.55-0.54c-0.93,0-1.61,0.25-2.04,0.75
		c-0.43,0.5-0.65,1.33-0.65,2.49v4.66h-1.35v-8.89h1.09l0.22,1.22h0.06c0.28-0.44,0.66-0.78,1.16-1.02c0.5-0.24,1.05-0.36,1.66-0.36
		c1.07,0,1.88,0.26,2.42,0.77c0.54,0.52,0.81,1.34,0.81,2.48v5.8H506.62z"/>
	<path class="st1" d="M509.32,226.6h1.44l1.95,5.07c0.43,1.16,0.69,1.99,0.79,2.51h0.06c0.07-0.28,0.22-0.75,0.44-1.42
		c0.22-0.67,0.96-2.72,2.2-6.16h1.44l-3.82,10.12c-0.38,1-0.82,1.71-1.33,2.13c-0.51,0.42-1.13,0.63-1.86,0.63
		c-0.41,0-0.82-0.05-1.22-0.14v-1.08c0.3,0.06,0.63,0.1,1,0.1c0.92,0,1.58-0.52,1.98-1.56l0.49-1.26L509.32,226.6z"/>
</g>
</svg>
