<svg xmlns="http://www.w3.org/2000/svg" width="158.672" height="159.147" viewBox="0 0 158.672 159.147">
  <g id="Security_information" data-name="Security information" transform="translate(-5991 -3363)">
    <g id="Gruppe_185" data-name="Gruppe 185" transform="translate(5991 3363)">
      <path id="Path_1" data-name="Path 1" d="M242.835,669.556l-1.4-5.511a71.562,71.562,0,0,0-7.593-2.724l-.176,2.561-.715-2.822c-3.2-.915-5.377-1.317-5.377-1.317s2.94,11.182,9.108,19.73l7.186,1.262-5.583.805a28.961,28.961,0,0,0,2.5,2.646c8.972,8.328,18.964,12.148,22.319,8.534s-1.2-13.3-10.17-21.622a38.131,38.131,0,0,0-9.773-6.284Z" transform="translate(-227.576 -535.489)" fill="#00a18a"/>
      <path id="Path_2" data-name="Path 2" d="M322.667,617.538l1.653-5.44a71.572,71.572,0,0,0-5.091-6.257l-1.475,2.1.846-2.786c-2.267-2.436-3.922-3.906-3.922-3.906s-3.262,11.092-2.4,21.6l5.5,4.8-5.2-2.2a28.961,28.961,0,0,0,.77,3.556c3.376,11.766,9.955,20.2,14.7,18.842s5.847-12,2.471-23.767a38.125,38.125,0,0,0-5.117-10.431Z" transform="translate(-294.119 -489.457)" fill="#00a18a"/>
      <path id="Path_22" data-name="Path 22" d="M455.072,114.164H454.2V90.284a13.822,13.822,0,0,0-13.822-13.822h-50.6a13.822,13.822,0,0,0-13.822,13.822V221.295a13.822,13.822,0,0,0,13.822,13.822h50.6A13.822,13.822,0,0,0,454.2,221.3V131.162h.872Z" transform="translate(-344.352 -76.462)" fill="#0a3250"/>
      <path id="Path_23" data-name="Path 23" d="M455.026,93.335h-6.6a4.9,4.9,0,0,1-4.541,6.756H414.9a4.9,4.9,0,0,1-4.54-6.756h-6.168a10.322,10.322,0,0,0-10.322,10.322V234.478A10.322,10.322,0,0,0,404.187,244.8h50.839a10.322,10.322,0,0,0,10.322-10.322h0V103.657a10.322,10.322,0,0,0-10.322-10.322Z" transform="translate(-358.441 -89.741)" fill="#fff"/>
      <rect id="Rectangle_1" data-name="Rectangle 1" width="46.557" height="0.436" transform="translate(46.559 95.244)" fill="#ccc"/>
      <circle id="Ellipse_2" data-name="Ellipse 2" cx="1.47" cy="1.47" r="1.47" transform="translate(46.559 89.581)" fill="#0a3250"/>
      <rect id="Rectangle_2" data-name="Rectangle 2" width="46.557" height="0.436" transform="translate(46.559 109.947)" fill="#ccc"/>
      <circle id="Ellipse_3" data-name="Ellipse 3" cx="1.47" cy="1.47" r="1.47" transform="translate(46.559 104.284)" fill="#0a3250"/>
      <path id="Pfad_886" data-name="Pfad 886" d="M602.794,645.038H588.081a.96.96,0,0,1-.959-.959v-5.157a.96.96,0,0,1,.959-.959h14.713a.96.96,0,0,1,.959.959v5.157a.96.96,0,0,1-.959.959Z" transform="translate(-510.529 -518.349)" fill="#0a3250"/>
      <circle id="Ellipse_7" data-name="Ellipse 7" cx="1.47" cy="1.47" r="1.47" transform="translate(51.356 89.581)" fill="#0a3250"/>
      <circle id="Ellipse_8" data-name="Ellipse 8" cx="1.47" cy="1.47" r="1.47" transform="translate(56.152 89.581)" fill="#0a3250"/>
      <circle id="Ellipse_9" data-name="Ellipse 9" cx="1.47" cy="1.47" r="1.47" transform="translate(51.356 104.284)" fill="#0a3250"/>
      <circle id="Ellipse_10" data-name="Ellipse 10" cx="1.47" cy="1.47" r="1.47" transform="translate(56.152 104.284)" fill="#0a3250"/>
      <path id="Path_88" data-name="Path 88" d="M402.417,821.621H249.467c-.327,0-.593-.116-.593-.259s.265-.26.593-.26h152.95c.327,0,.593.116.593.26S402.744,821.621,402.417,821.621Z" transform="translate(-244.337 -662.474)" fill="#cacaca"/>
      <path id="Pfad_887" data-name="Pfad 887" d="M780.9,542.093a2.147,2.147,0,0,1,.3.168l9.555-4.078.341-2.517,3.818-.023-.226,5.773-12.611,3.335a2.267,2.267,0,0,1-.1.257,2.18,2.18,0,1,1-1.082-2.915Z" transform="translate(-660.61 -437.825)" fill="#ffb8b8"/>
      <path id="Pfad_888" data-name="Pfad 888" d="M622.742,697.807H620.13l-1.242-10.074h3.854Z" transform="translate(-487.049 -541.228)" fill="#ffb8b8"/>
      <path id="Pfad_889" data-name="Pfad 889" d="M604.247,731.518h5.037v3.171h-8.208A3.171,3.171,0,0,1,604.247,731.518Z" transform="translate(-473.031 -575.686)" fill="#2f2e41"/>
      <path id="Pfad_890" data-name="Pfad 890" d="M666.841,694.522l-2.6.256-2.224-9.9,3.836-.378Z" transform="translate(-520.991 -538.681)" fill="#ffb8b8"/>
      <path id="Pfad_891" data-name="Pfad 891" d="M3.171,0H8.208V3.171H0A3.171,3.171,0,0,1,3.171,0Z" transform="translate(138.165 155.848) rotate(-5.625)" fill="#2f2e41"/>
      <circle id="Ellipse_199" data-name="Ellipse 199" cx="5.232" cy="5.232" r="5.232" transform="translate(131.188 76.692)" fill="#ffb8b8"/>
      <path id="Pfad_892" data-name="Pfad 892" d="M824.361,665.892a.952.952,0,0,1-.94-.788c-1.352-7.5-5.771-32.04-5.876-32.72a.3.3,0,0,1,0-.047v-1.829a.317.317,0,0,1,.06-.186l.584-.818a.315.315,0,0,1,.244-.133c3.328-.156,14.227-.613,14.753.045h0c.529.661.342,2.664.3,3.059l0,.041,4.9,31.314a.961.961,0,0,1-.791,1.094l-3.058.5a.963.963,0,0,1-1.071-.659c-.946-3.023-4.118-13.19-5.217-17.124a.106.106,0,0,0-.209.03c.055,3.75.188,13.319.233,16.624l.005.356a.962.962,0,0,1-.872.966l-2.949.268A.879.879,0,0,1,824.361,665.892Z" transform="translate(-691.863 -511.351)" fill="#2f2e41"/>
      <path id="Path_99" data-name="Path 99" d="M825.61,493.456a4.375,4.375,0,0,0-1.773,2.555,24.222,24.222,0,0,0-1.04,5.786l-.331,5.88-4.1,15.587c3.555,3.008,5.606,2.324,10.392-.136s5.333.82,5.333.82l.957-13.263,1.367-14.493a6.426,6.426,0,0,0-1.036-1,10.579,10.579,0,0,0-9.041-1.916Z" transform="translate(-692.51 -404.242)" fill="#0a3250"/>
      <path id="Pfad_893" data-name="Pfad 893" d="M835.011,553.33a2.239,2.239,0,0,1,.32.15l9.447-4.729.157-2.562,3.9-.269.209,5.84-12.625,4.175a2.236,2.236,0,1,1-1.4-2.606Z" transform="translate(-703.244 -445.914)" fill="#ffb8b8"/>
      <path id="Path_101" data-name="Path 101" d="M884.306,507.369c2.324.82,2.734,9.708,2.734,9.708-2.735-1.5-6.016.957-6.016.957s-.684-2.324-1.5-5.333a5.226,5.226,0,0,1,1.094-4.922A3.724,3.724,0,0,1,884.306,507.369Z" transform="translate(-740.473 -415.353)" fill="#0a3250"/>
      <path id="Path_102" data-name="Path 102" d="M853.338,435.439c-.652-.522-1.541.426-1.541.426l-.522-4.694a18.637,18.637,0,0,1-5.346-.13c-2.086-.521-2.412,1.891-2.412,1.891a16.738,16.738,0,0,1-.065-2.934c.13-1.173,1.825-2.347,4.824-3.129s4.563,2.608,4.563,2.608C854.926,430.52,853.99,435.961,853.338,435.439Z" transform="translate(-712.227 -352.131)" fill="#2f2e41"/>
    </g>
    <g id="Gruppe_187" data-name="Gruppe 187" transform="translate(6051.39 3406.677)">
      <rect id="Rechteck_1654" data-name="Rechteck 1654" width="3.757" height="11.272" transform="translate(6.012 0)" fill="#0a3250"/>
      <rect id="Rechteck_1655" data-name="Rechteck 1655" width="4.133" height="9.017" transform="translate(11.648 0)" fill="#0a3250"/>
      <rect id="Rechteck_1656" data-name="Rechteck 1656" width="4.133" height="6.763" transform="translate(17.284 0)" fill="#0a3250"/>
      <rect id="Rechteck_1657" data-name="Rechteck 1657" width="3.757" height="4.509" transform="translate(23.295 0)" fill="#0a3250"/>
      <rect id="Rechteck_1658" data-name="Rechteck 1658" width="4.133" height="13.526" transform="translate(0 0)" fill="#0a3250"/>
    </g>
  </g>
</svg>
