<svg xmlns="http://www.w3.org/2000/svg" xmlns:xlink="http://www.w3.org/1999/xlink" width="322.948" height="176.21" viewBox="0 0 322.948 176.21">
  <defs>
    <filter id="Rechteck_1594" x="288.624" y="0" width="34.324" height="37.895" filterUnits="userSpaceOnUse">
      <feOffset dy="3" input="SourceAlpha"/>
      <feGaussianBlur stdDeviation="3" result="blur"/>
      <feFlood flood-opacity="0.161"/>
      <feComposite operator="in" in2="blur"/>
      <feComposite in="SourceGraphic"/>
    </filter>
    <filter id="Rechteck_1672" x="218.687" y="22.898" width="104" height="80" filterUnits="userSpaceOnUse">
      <feOffset dy="3" input="SourceAlpha"/>
      <feGaussianBlur stdDeviation="3" result="blur-2"/>
      <feFlood flood-opacity="0.161"/>
      <feComposite operator="in" in2="blur-2"/>
      <feComposite in="SourceGraphic"/>
    </filter>
    <clipPath id="clip-path">
      <rect width="70" height="43" fill="none"/>
    </clipPath>
  </defs>
  <g id="Share" transform="translate(-4710.86 -4217.049)">
    <g id="Gruppe_194" data-name="Gruppe 194" transform="translate(4765.36 4210.987)">
      <path id="Pfad_900" data-name="Pfad 900" d="M4,0H312.482a4,4,0,0,1,4,4V142.466H0V4A4,4,0,0,1,4,0Z" transform="translate(-54 39.306)" fill="#fff" stroke="rgba(112,112,112,0.38)" stroke-width="1"/>
      <path id="Icon_awesome-chevron-left" data-name="Icon awesome-chevron-left" d="M2.126,8.182l5.341-5.34a.66.66,0,0,1,.933,0l.623.623a.66.66,0,0,1,0,.932L4.791,8.648,9.023,12.9a.659.659,0,0,1,0,.932l-.623.623a.66.66,0,0,1-.933,0L2.126,9.114A.66.66,0,0,1,2.126,8.182Z" transform="translate(-54.591 12.844)" fill="#4e5155"/>
      <rect id="Rechteck_1663" data-name="Rechteck 1663" width="117" height="10.3" transform="translate(-36.254 16.978)" fill="#4e5155" opacity="0.2"/>
      <path id="star-solid" d="M27.028.474l-1.785,3.62-3.994.582a.875.875,0,0,0-.484,1.493l2.89,2.816-.684,3.978a.874.874,0,0,0,1.269.921l3.573-1.878,3.573,1.878a.875.875,0,0,0,1.269-.921l-.684-3.978,2.89-2.816a.875.875,0,0,0-.484-1.493l-3.994-.582L28.6.474A.876.876,0,0,0,27.028.474Z" transform="translate(195.143 14.317)" fill="#4e5155"/>
      <path id="info-circle-solid_1_" data-name="info-circle-solid (1)" d="M15,8a7,7,0,1,0,7,7A7,7,0,0,0,15,8Zm0,3.1a1.185,1.185,0,1,1-1.185,1.185A1.185,1.185,0,0,1,15,11.1Zm1.581,7.169a.339.339,0,0,1-.339.339H13.758a.339.339,0,0,1-.339-.339V17.6a.339.339,0,0,1,.339-.339H14.1V15.452h-.339a.339.339,0,0,1-.339-.339v-.677a.339.339,0,0,1,.339-.339h1.806a.339.339,0,0,1,.339.339v2.823h.339a.339.339,0,0,1,.339.339Z" transform="translate(185.293 6.307)" fill="#a3a4a6"/>
      <rect id="Rechteck_1664" data-name="Rechteck 1664" width="132" height="8" rx="4" transform="translate(-41.254 58.492)" fill="#4e5155" opacity="0.2"/>
      <rect id="Rechteck_1665" data-name="Rechteck 1665" width="132" height="8" rx="4" transform="translate(-41.254 75.492)" fill="#4e5155" opacity="0.2"/>
      <rect id="Rechteck_1666" data-name="Rechteck 1666" width="132" height="8" rx="4" transform="translate(-41.254 92.492)" fill="#4e5155" opacity="0.2"/>
      <rect id="Rechteck_1667" data-name="Rechteck 1667" width="280.076" height="8" rx="4" transform="translate(-41.254 127.192)" fill="#4e5155" opacity="0.2"/>
      <rect id="Rechteck_1668" data-name="Rechteck 1668" width="280.076" height="8" rx="4" transform="translate(-41.254 144.192)" fill="#4e5155" opacity="0.2"/>
      <rect id="Rechteck_1669" data-name="Rechteck 1669" width="280.076" height="8" rx="4" transform="translate(-41.254 161.192)" fill="#4e5155" opacity="0.2"/>
      <rect id="Rechteck_1670" data-name="Rechteck 1670" width="51.992" height="8" rx="4" transform="translate(186.83 58.492)" fill="#4e5155" opacity="0.2"/>
      <rect id="Rechteck_1671" data-name="Rechteck 1671" width="51.992" height="8" rx="4" transform="translate(186.83 75.492)" fill="#4e5155" opacity="0.2"/>
      <g id="btn" transform="translate(242.107 11.753)">
        <g transform="matrix(1, 0, 0, 1, -296.61, -5.69)" filter="url(#Rechteck_1594)">
          <rect id="Rechteck_1594-2" data-name="Rechteck 1594" width="16.324" height="19.895" rx="2.8" transform="translate(297.62 6)" fill="#e6e6e6"/>
        </g>
        <path id="Icon_awesome-ellipsis-v" data-name="Icon awesome-ellipsis-v" d="M3.859,5.871A2.171,2.171,0,1,1,1.687,8.042,2.17,2.17,0,0,1,3.859,5.871ZM1.687,2.734A2.171,2.171,0,1,0,3.859.563,2.17,2.17,0,0,0,1.687,2.734Zm0,10.616a2.171,2.171,0,1,0,2.171-2.171A2.17,2.17,0,0,0,1.687,13.35Z" transform="translate(5.473 2.833)" fill="#676d71"/>
      </g>
    </g>
    <g id="Gruppe_284" data-name="Gruppe 284" transform="translate(4679.547 1110.442)">
      <g transform="matrix(1, 0, 0, 1, 31.31, 3106.61)" filter="url(#Rechteck_1672)">
        <rect id="Rechteck_1672-2" data-name="Rechteck 1672" width="86" height="62" transform="translate(227.69 28.9)" fill="#fff"/>
      </g>
      <g id="Wiederholungsraster_1" data-name="Wiederholungsraster 1" transform="translate(267 3146.506)" clip-path="url(#clip-path)">
        <g transform="translate(-267 -3424)">
          <rect id="Rechteck_1673" data-name="Rechteck 1673" width="70" height="6" transform="translate(267 3424)" fill="#d6d7d8"/>
        </g>
        <g transform="translate(-267 -3408)">
          <rect id="Rechteck_1673-2" data-name="Rechteck 1673" width="70" height="6" transform="translate(267 3424)" fill="#d6d7d8"/>
        </g>
        <g transform="translate(-267 -3392)">
          <rect id="Rechteck_1673-3" data-name="Rechteck 1673" width="70" height="6" transform="translate(267 3424)" fill="#d6d7d8"/>
        </g>
      </g>
    </g>
  </g>
</svg>
