<svg id="Ebene_1" data-name="Ebene 1" xmlns="http://www.w3.org/2000/svg" viewBox="0 0 317.21 60.7"><defs><style>.cls-1{fill:#fff;stroke:#fff;stroke-miterlimit:10;}</style></defs><polygon class="cls-1" points="200.71 58.9 200.71 1.8 217.81 1.8 217.81 58.9 200.71 58.9"/><polygon class="cls-1" points="225.51 49.1 225.51 1.8 242.51 1.8 242.51 49.1 225.51 49.1"/><polygon class="cls-1" points="250.21 39.2 250.21 1.8 267.31 1.8 267.31 39.2 250.21 39.2"/><polygon class="cls-1" points="274.91 29.3 274.91 1.8 292.01 1.8 292.01 29.3 274.91 29.3"/><polygon class="cls-1" points="299.71 19.5 299.71 1.8 316.71 1.8 316.71 19.5 299.71 19.5"/><path class="cls-1" d="M303.6,296.3,288.5,294c-14-2.2-17.3-5.2-17.1-11.3.2-6.6,6.2-11.7,24.2-11.7,19.4,0,23.9,7.7,24.4,14.3h4.8c-.2-12.2-11.8-17.5-30.4-17.5-18.3,0-28.1,6.2-28.3,14.8s5.8,12.3,21.9,15l13.7,2.2c15.4,2.5,19.3,5.4,19.1,11.8-.2,6.7-7,12.7-25.1,12.7-19.8,0-28-6.3-27.8-17H263c-.4,12.1,8.7,20.2,32.9,20.2,23,0,29.9-8.4,30.1-16.2C326.2,302.2,318.3,298.5,303.6,296.3Z" transform="translate(-262.49 -267.3)"/><path class="cls-1" d="M421.2,269.1H318a18,18,0,0,1,7.3,7.4h20.3v49.8h11.1V276.5h21.9v49.8h18.7V305.9h25.6c15.7,0,22.7-7.2,22.7-19.4C445.4,278.7,441.5,269.1,421.2,269.1Zm-6.3,26.3H397.1V279.5h19.6c5.5,0,11.1.6,11.1,8.1S420.9,295.4,414.9,295.4Z" transform="translate(-262.49 -267.3)"/></svg>