<svg xmlns="http://www.w3.org/2000/svg" xmlns:xlink="http://www.w3.org/1999/xlink" width="253.93" height="184.788" viewBox="0 0 253.93 184.788">
  <defs>
    <linearGradient id="linear-gradient" x1="0.5" y1="1" x2="0.5" gradientUnits="objectBoundingBox">
      <stop offset="0" stop-color="gray" stop-opacity="0.251"/>
      <stop offset="0.54" stop-color="gray" stop-opacity="0.122"/>
      <stop offset="1" stop-color="gray" stop-opacity="0.102"/>
    </linearGradient>
    <linearGradient id="linear-gradient-4" x1="0.5" y1="1.001" x2="0.5" y2="0" xlink:href="#linear-gradient"/>
    <linearGradient id="linear-gradient-5" x1="0" y1="0.5" x2="1" y2="0.5" xlink:href="#linear-gradient"/>
    <linearGradient id="linear-gradient-6" x1="1.414" y1="1" x2="1.414" y2="0" xlink:href="#linear-gradient"/>
    <linearGradient id="linear-gradient-8" x1="0.501" y1="1.001" x2="0.501" y2="0" xlink:href="#linear-gradient"/>
  </defs>
  <g id="undraw_in_sync_xwsa" transform="translate(-0.012 0.008)">
    <path id="Pfad_689" data-name="Pfad 689" d="M93.947,98.686a17.45,17.45,0,0,0-5.581.542,9.3,9.3,0,0,0-6.345,10.486c.741,4.176,3.788,7.815,6.95,11.141s6.588,6.614,8.322,10.589a7.692,7.692,0,0,1,.39,6.188c-1.355,3.055-5.443,4.761-9.367,5.116s-7.864-.337-11.8-.568a14.835,14.835,0,0,0-4.908.339,12.988,12.988,0,0,0-4.44,2.515c-5.116,4.057-9.21,9.6-8.542,15.41.748,6.6,7.418,11.811,14.723,14.609a42.28,42.28,0,0,1,7.107,3c5.609,3.489,6.869,10.033,6.31,15.808s-2.461,11.557-1.4,17.28c1.246,6.658,6.759,12.674,14.2,15.483,6.626,2.5,14.917,2.337,20.8-1.194a25.169,25.169,0,0,0,6.922-6.6,53.224,53.224,0,0,0,6.883-11.919c.82-1.984,1.592-4.118,3.506-5.5a12.046,12.046,0,0,1,4.181-1.692c4.515-1.112,9.271-1.416,13.828-2.407s9.131-2.84,11.608-6.142c3.506-4.674,1.87-10.662,1.886-16.158.028-12.541,9.14-23.765,12.5-35.99,1.1-3.994,1.507-8.413-.946-11.977-1.666-2.419-4.478-4.165-7.432-5.513-6.5-2.966-13.887-4.286-21.153-5.572-10.1-1.785-22.361-2.017-30.188-7.794A48.769,48.769,0,0,0,93.947,98.686Z" transform="translate(-58.085 -88.178)" fill="#00a18a" opacity="0.2"/>
    <g id="Gruppe_12" data-name="Gruppe 12" transform="translate(5.803 75.412)" opacity="0.5">
      <path id="Pfad_690" data-name="Pfad 690" d="M81.978,383a2.838,2.838,0,0,0-.257,3.062c1.285,2.454,4.464,1.949,6.009,4.3a4.3,4.3,0,0,1,.666,2.171,14.742,14.742,0,0,1-.566,3.548,6,6,0,0,0,.612,4.052,7.156,7.156,0,0,0,3.272,2.919,17.406,17.406,0,0,0,3.482.921,21.431,21.431,0,0,1,4.13,1.4,7.8,7.8,0,0,1,1.762,1.028,12.832,12.832,0,0,1,1.783,1.921l4.971,6.137a17.566,17.566,0,0,0,2.1,2.3,12.67,12.67,0,0,0,2.739,1.685c1.984.989,4.059,2,5.782,1.886s2.919-1.776,2.1-4.1c-.771-2.211-2.945-4.073-3.931-6.28-1.554-3.478.481-6.076-.82-9.559-1.248-3.347-4.747-5.59-6.981-8.647-1.6-2.173-2.5-4.7-3.94-6.985a19.12,19.12,0,0,0-8.18-7.042,15.876,15.876,0,0,0-8.217-1.138,5.265,5.265,0,0,0-2.872.953c-.8.678-.7,1.944-1.225,2.844C83.8,381.416,82.658,382,81.978,383Z" transform="translate(-81.383 -376.455)" fill="#00a18a"/>
      <path id="Pfad_691" data-name="Pfad 691" d="M97.28,384.33s24.885,23.265,34.92,41.38" transform="translate(-93.565 -382.49)" fill="none" stroke="#535461" stroke-miterlimit="10" stroke-width="2"/>
      <path id="Pfad_692" data-name="Pfad 692" d="M83.24,417.478s9.944-1.933,16.827,5.819" transform="translate(-82.806 -407.727)" fill="none" stroke="#535461" stroke-miterlimit="10" stroke-width="2"/>
      <path id="Pfad_693" data-name="Pfad 693" d="M113.48,465.574s10.984-7.682,14.784-3.213" transform="translate(-105.979 -441.214)" fill="none" stroke="#535461" stroke-miterlimit="10" stroke-width="2"/>
      <path id="Pfad_694" data-name="Pfad 694" d="M146.316,381.63s-1.157,5.88,3.005,15.485" transform="translate(-131.028 -380.421)" fill="none" stroke="#535461" stroke-miterlimit="10" stroke-width="2"/>
      <path id="Pfad_695" data-name="Pfad 695" d="M199.867,479.28s-.972,3.856-8.787,1.021" transform="translate(-165.443 -455.249)" fill="none" stroke="#535461" stroke-miterlimit="10" stroke-width="2"/>
      <path id="Pfad_696" data-name="Pfad 696" d="M194.73,510.049s4.77-5.513,2.6-8.219" transform="translate(-168.24 -472.529)" fill="none" stroke="#535461" stroke-miterlimit="10" stroke-width="2"/>
    </g>
    <path id="Pfad_697" data-name="Pfad 697" d="M58.312,243.307c-1.169,1.381-2.262,3.293-1.4,5.179,1.655,3.7,7.78,1.891,9.965,5.338a5.091,5.091,0,0,1,.591,3.414c-.294,2.2-1.384,4.066-2.136,6.076a8.251,8.251,0,0,0-.082,6.562,7.95,7.95,0,0,0,5.258,3.868,29.416,29.416,0,0,0,6.256.467,34.634,34.634,0,0,1,7.327,1.08,10.121,10.121,0,0,1,2.987,1.2,13.285,13.285,0,0,1,2.765,2.66l7.479,8.715a17.822,17.822,0,0,0,3.239,3.195,15.994,15.994,0,0,0,4.63,1.975c3.424,1.047,7.011,2.1,10.283,1.386s6.018-3.844,5.2-7.464c-.778-3.447-4.288-5.892-5.471-9.269-1.87-5.321,2.746-10.257,1.36-15.672-1.327-5.193-7.212-7.871-10.484-12.267-2.337-3.15-3.258-7.091-5.3-10.442a21.392,21.392,0,0,0-13.209-9.259,31.442,31.442,0,0,0-15.067.568,14.718,14.718,0,0,0-5.679,2.459c-1.713,1.372-1.909,3.454-3.157,5.109C62.217,240.108,59.887,241.438,58.312,243.307Z" transform="translate(-56.59 -188.335)" fill="#00a18a"/>
    <path id="Pfad_698" data-name="Pfad 698" d="M95.07,251.4s39.653,31.2,52.995,58.333" transform="translate(-86.068 -205.214)" fill="none" stroke="#535461" stroke-miterlimit="10" stroke-width="2"/>
    <path id="Pfad_699" data-name="Pfad 699" d="M58.46,306.153s19.25-6.228,29.807,4.595" transform="translate(-58.014 -245.805)" fill="none" stroke="#535461" stroke-miterlimit="10" stroke-width="2"/>
    <path id="Pfad_700" data-name="Pfad 700" d="M96.26,369.974s22.929-16.126,28.725-9.837" transform="translate(-86.98 -287.424)" fill="none" stroke="#535461" stroke-miterlimit="10" stroke-width="2"/>
    <path id="Pfad_701" data-name="Pfad 701" d="M183.9,231.88s-3.952,10.14.935,24.88" transform="translate(-152.983 -190.256)" fill="none" stroke="#535461" stroke-miterlimit="10" stroke-width="2"/>
    <path id="Pfad_702" data-name="Pfad 702" d="M257.8,369.69s-2.994,6.714-16.8,4.366" transform="translate(-197.894 -295.86)" fill="none" stroke="#535461" stroke-miterlimit="10" stroke-width="2"/>
    <path id="Pfad_703" data-name="Pfad 703" d="M231.69,428.59s10.627-10.629,7.378-14.49" transform="translate(-190.759 -329.891)" fill="none" stroke="#535461" stroke-miterlimit="10" stroke-width="2"/>
    <ellipse id="Ellipse_173" data-name="Ellipse 173" cx="108.672" cy="29.101" rx="108.672" ry="29.101" transform="translate(35.759 122.457)" fill="#0a3250" opacity="0.1"/>
    <path id="Pfad_704" data-name="Pfad 704" d="M998.211,55.53a19.994,19.994,0,0,0-3.646,20.8c4.728,12.426-8.1,33.09-8.1,33.09s.138-.021.393-.065a24.383,24.383,0,0,0,16.182-37.32C999.48,66.6,996.561,60.232,998.211,55.53Z" transform="translate(-769.136 -55.12)" fill="#00a18a"/>
    <path id="Pfad_705" data-name="Pfad 705" d="M998.211,55.53s-4.728,10.264,0,18.638.811,31.875-11.751,35.252" transform="translate(-769.136 -55.12)" fill="none" stroke="#535461" stroke-miterlimit="10" stroke-width="2"/>
    <path id="Pfad_706" data-name="Pfad 706" d="M1006.129,200.117s-9.556-1.521-10.426,7.042-18.374,9.75-18.374,9.75l.327.217c14.452,9.486,28.278,6.044,26.175-6.544C1003.068,205.89,1003.131,201.178,1006.129,200.117Z" transform="translate(-762.14 -165.836)" fill="#42659f"/>
    <path id="Pfad_707" data-name="Pfad 707" d="M1006.129,200.117s-9.556-1.521-10.426,7.042-18.374,9.75-18.374,9.75l.327.217c14.452,9.486,28.278,6.044,26.175-6.544C1003.068,205.89,1003.131,201.178,1006.129,200.117Z" transform="translate(-762.14 -165.836)" fill="#00a18a" opacity="0.2"/>
    <path id="Pfad_708" data-name="Pfad 708" d="M1006.129,200.46s-7.418,1.636-6.808,8.371-11.014,14.829-21.992,8.413" transform="translate(-762.14 -166.179)" fill="none" stroke="#535461" stroke-miterlimit="10" stroke-width="2"/>
    <path id="Pfad_709" data-name="Pfad 709" d="M299.29,224.826s-3.1-10.517.582-18.262a16.614,16.614,0,0,0,1.344-10.423,27.943,27.943,0,0,0-1.475-4.891" transform="translate(-241.626 -159.122)" fill="none" stroke="#535461" stroke-miterlimit="10" stroke-width="2"/>
    <path id="Pfad_710" data-name="Pfad 710" d="M299.674,162.637c0,1.29-2.337,5.027-2.337,5.027S295,163.925,295,162.637a2.337,2.337,0,0,1,4.674,0Z" transform="translate(-239.274 -135.405)" fill="#00a18a"/>
    <path id="Pfad_711" data-name="Pfad 711" d="M316.133,188.743c-.7,1.082-4.693,2.952-4.693,2.952s.072-4.408.774-5.49a2.337,2.337,0,1,1,3.919,2.538Z" transform="translate(-251.871 -154.369)" fill="#00a18a"/>
    <path id="Pfad_712" data-name="Pfad 712" d="M312.631,238.441c-1.152.58-5.541.18-5.541.18s2.288-3.767,3.438-4.347a2.337,2.337,0,1,1,2.1,4.169Z" transform="translate(-248.538 -191.863)" fill="#00a18a"/>
    <path id="Pfad_713" data-name="Pfad 713" d="M303.551,278.422c-1.038.767-5.431,1.112-5.431,1.112s1.617-4.1,2.655-4.866a2.337,2.337,0,1,1,2.776,3.753Z" transform="translate(-241.664 -222.641)" fill="#00a18a"/>
    <path id="Pfad_714" data-name="Pfad 714" d="M287.882,201.163c.935.9,5.233,1.83,5.233,1.83s-1.054-4.279-1.979-5.177a2.337,2.337,0,1,0-3.253,3.349Z" transform="translate(-233.214 -163.587)" fill="#00a18a"/>
    <path id="Pfad_715" data-name="Pfad 715" d="M276.077,246.416c1.152.58,5.541.18,5.541.18s-2.288-3.767-3.438-4.347a2.337,2.337,0,0,0-2.1,4.169Z" transform="translate(-223.856 -198.043)" fill="#00a18a"/>
    <path id="Pfad_716" data-name="Pfad 716" d="M273.188,293.464c1.038.767,5.431,1.112,5.431,1.112s-1.617-4.1-2.655-4.866a2.337,2.337,0,0,0-2.776,3.753Z" transform="translate(-221.901 -234.271)" fill="#00a18a"/>
    <path id="Pfad_717" data-name="Pfad 717" d="M446.713,268.17H426.827a6.628,6.628,0,0,0,.7-2.961V174.654A6.658,6.658,0,0,0,420.87,168H266.936a6.658,6.658,0,0,0-6.658,6.658v90.551a6.628,6.628,0,0,0,.7,2.961H240.39a1.76,1.76,0,0,0-1.76,1.76v1.419a9.848,9.848,0,0,0,9.848,9.848h190.16a9.848,9.848,0,0,0,9.848-9.848V269.93a1.76,1.76,0,0,0-1.774-1.76ZM324.184,273.8l-1.706-1.937H364.8l-1.888,1.937Z" transform="translate(-196.077 -141.305)" fill="url(#linear-gradient)"/>
    <rect id="Rechteck_172" data-name="Rechteck 172" width="163.462" height="101.519" rx="23.26" transform="translate(66.087 27.973)" fill="#535461"/>
    <rect id="Rechteck_173" data-name="Rechteck 173" width="156.236" height="82.935" transform="translate(69.529 42.771)" fill="#f1f1f4"/>
    <circle id="Ellipse_174" data-name="Ellipse 174" cx="1.377" cy="1.377" r="1.377" transform="translate(146.27 34.166)" fill="#fff"/>
    <path id="Pfad_718" data-name="Pfad 718" d="M375.618,592.39l-5.375,5.506h-37.86l-4.852-5.506H250.49a1.72,1.72,0,0,0-1.72,1.72V595.5a9.624,9.624,0,0,0,9.636,9.624H444.247a9.624,9.624,0,0,0,9.624-9.624V594.11a1.72,1.72,0,0,0-1.72-1.72Z" transform="translate(-203.848 -466.514)" fill="#535461"/>
    <rect id="Rechteck_174" data-name="Rechteck 174" width="42.714" height="32.19" transform="translate(79.071 49.091)" fill="#fff"/>
    <rect id="Rechteck_175" data-name="Rechteck 175" width="14.237" height="8.046" transform="translate(83.25 51.876)" fill="#42659f" opacity="0.2"/>
    <rect id="Rechteck_176" data-name="Rechteck 176" width="16.715" height="1.858" transform="translate(100.892 51.876)" fill="#e6e8ec"/>
    <rect id="Rechteck_177" data-name="Rechteck 177" width="11.762" height="1.858" transform="translate(100.892 54.971)" fill="#e6e8ec"/>
    <rect id="Rechteck_178" data-name="Rechteck 178" width="16.715" height="1.858" transform="translate(100.892 58.065)" fill="#e6e8ec"/>
    <rect id="Rechteck_179" data-name="Rechteck 179" width="34.357" height="1.858" transform="translate(83.25 61.161)" fill="#e6e8ec"/>
    <rect id="Rechteck_180" data-name="Rechteck 180" width="34.357" height="1.858" transform="translate(83.25 64.256)" fill="#e6e8ec"/>
    <rect id="Rechteck_181" data-name="Rechteck 181" width="34.357" height="1.858" transform="translate(83.25 67.352)" fill="#e6e8ec"/>
    <rect id="Rechteck_182" data-name="Rechteck 182" width="31.571" height="1.858" transform="translate(83.25 70.446)" fill="#e6e8ec"/>
    <rect id="Rechteck_183" data-name="Rechteck 183" width="34.357" height="1.858" transform="translate(83.25 73.541)" fill="#e6e8ec"/>
    <rect id="Rechteck_184" data-name="Rechteck 184" width="34.357" height="1.858" transform="translate(83.25 76.637)" fill="#e6e8ec"/>
    <rect id="Rechteck_185" data-name="Rechteck 185" width="42.714" height="32.19" transform="translate(126.118 49.091)" fill="#fff"/>
    <rect id="Rechteck_186" data-name="Rechteck 186" width="14.237" height="8.046" transform="translate(130.294 51.876)" fill="#42659f" opacity="0.2"/>
    <rect id="Rechteck_187" data-name="Rechteck 187" width="16.715" height="1.858" transform="translate(147.939 51.876)" fill="#e6e8ec"/>
    <rect id="Rechteck_188" data-name="Rechteck 188" width="11.762" height="1.858" transform="translate(147.939 54.971)" fill="#e6e8ec"/>
    <rect id="Rechteck_189" data-name="Rechteck 189" width="16.715" height="1.858" transform="translate(147.939 58.065)" fill="#e6e8ec"/>
    <rect id="Rechteck_190" data-name="Rechteck 190" width="34.357" height="1.858" transform="translate(130.294 61.161)" fill="#e6e8ec"/>
    <rect id="Rechteck_191" data-name="Rechteck 191" width="34.357" height="1.858" transform="translate(130.294 64.256)" fill="#e6e8ec"/>
    <rect id="Rechteck_192" data-name="Rechteck 192" width="34.357" height="1.858" transform="translate(130.294 67.352)" fill="#e6e8ec"/>
    <rect id="Rechteck_193" data-name="Rechteck 193" width="31.571" height="1.858" transform="translate(130.294 70.446)" fill="#e6e8ec"/>
    <rect id="Rechteck_194" data-name="Rechteck 194" width="34.357" height="1.858" transform="translate(130.294 73.541)" fill="#e6e8ec"/>
    <rect id="Rechteck_195" data-name="Rechteck 195" width="34.357" height="1.858" transform="translate(130.294 76.637)" fill="#e6e8ec"/>
    <rect id="Rechteck_196" data-name="Rechteck 196" width="42.714" height="32.19" transform="translate(173.163 49.091)" fill="#fff"/>
    <rect id="Rechteck_197" data-name="Rechteck 197" width="14.237" height="8.046" transform="translate(177.341 51.876)" fill="#42659f" opacity="0.2"/>
    <rect id="Rechteck_198" data-name="Rechteck 198" width="16.715" height="1.858" transform="translate(194.984 51.876)" fill="#e6e8ec"/>
    <rect id="Rechteck_199" data-name="Rechteck 199" width="11.762" height="1.858" transform="translate(194.984 54.971)" fill="#e6e8ec"/>
    <rect id="Rechteck_200" data-name="Rechteck 200" width="16.715" height="1.858" transform="translate(194.984 58.065)" fill="#e6e8ec"/>
    <rect id="Rechteck_201" data-name="Rechteck 201" width="34.357" height="1.858" transform="translate(177.341 61.161)" fill="#e6e8ec"/>
    <rect id="Rechteck_202" data-name="Rechteck 202" width="34.357" height="1.858" transform="translate(177.341 64.256)" fill="#e6e8ec"/>
    <rect id="Rechteck_203" data-name="Rechteck 203" width="34.357" height="1.858" transform="translate(177.341 67.352)" fill="#e6e8ec"/>
    <rect id="Rechteck_204" data-name="Rechteck 204" width="31.571" height="1.858" transform="translate(177.341 70.446)" fill="#e6e8ec"/>
    <rect id="Rechteck_205" data-name="Rechteck 205" width="34.357" height="1.858" transform="translate(177.341 73.541)" fill="#e6e8ec"/>
    <rect id="Rechteck_206" data-name="Rechteck 206" width="34.357" height="1.858" transform="translate(177.341 76.637)" fill="#e6e8ec"/>
    <rect id="Rechteck_207" data-name="Rechteck 207" width="42.714" height="32.19" transform="translate(79.071 85.303)" fill="#fff"/>
    <rect id="Rechteck_208" data-name="Rechteck 208" width="14.237" height="8.046" transform="translate(83.25 88.089)" fill="#42659f" opacity="0.2"/>
    <rect id="Rechteck_209" data-name="Rechteck 209" width="16.715" height="1.858" transform="translate(100.892 88.089)" fill="#e6e8ec"/>
    <rect id="Rechteck_210" data-name="Rechteck 210" width="11.762" height="1.858" transform="translate(100.892 91.185)" fill="#e6e8ec"/>
    <rect id="Rechteck_211" data-name="Rechteck 211" width="16.715" height="1.858" transform="translate(100.892 94.28)" fill="#e6e8ec"/>
    <rect id="Rechteck_212" data-name="Rechteck 212" width="34.357" height="1.858" transform="translate(83.25 97.374)" fill="#e6e8ec"/>
    <rect id="Rechteck_213" data-name="Rechteck 213" width="34.357" height="1.858" transform="translate(83.25 100.47)" fill="#e6e8ec"/>
    <rect id="Rechteck_214" data-name="Rechteck 214" width="34.357" height="1.858" transform="translate(83.25 103.565)" fill="#e6e8ec"/>
    <rect id="Rechteck_215" data-name="Rechteck 215" width="31.571" height="1.858" transform="translate(83.25 106.661)" fill="#e6e8ec"/>
    <rect id="Rechteck_216" data-name="Rechteck 216" width="34.357" height="1.858" transform="translate(83.25 109.755)" fill="#e6e8ec"/>
    <rect id="Rechteck_217" data-name="Rechteck 217" width="34.357" height="1.858" transform="translate(83.25 112.85)" fill="#e6e8ec"/>
    <rect id="Rechteck_218" data-name="Rechteck 218" width="42.714" height="32.19" transform="translate(126.118 85.303)" fill="#fff"/>
    <rect id="Rechteck_219" data-name="Rechteck 219" width="14.237" height="8.046" transform="translate(130.294 88.089)" fill="#42659f" opacity="0.2"/>
    <rect id="Rechteck_220" data-name="Rechteck 220" width="16.715" height="1.858" transform="translate(147.939 88.089)" fill="#e6e8ec"/>
    <rect id="Rechteck_221" data-name="Rechteck 221" width="11.762" height="1.858" transform="translate(147.939 91.185)" fill="#e6e8ec"/>
    <rect id="Rechteck_222" data-name="Rechteck 222" width="16.715" height="1.858" transform="translate(147.939 94.28)" fill="#e6e8ec"/>
    <rect id="Rechteck_223" data-name="Rechteck 223" width="34.357" height="1.858" transform="translate(130.294 97.374)" fill="#e6e8ec"/>
    <rect id="Rechteck_224" data-name="Rechteck 224" width="34.357" height="1.858" transform="translate(130.294 100.47)" fill="#e6e8ec"/>
    <rect id="Rechteck_225" data-name="Rechteck 225" width="34.357" height="1.858" transform="translate(130.294 103.565)" fill="#e6e8ec"/>
    <rect id="Rechteck_226" data-name="Rechteck 226" width="31.571" height="1.858" transform="translate(130.294 106.661)" fill="#e6e8ec"/>
    <rect id="Rechteck_227" data-name="Rechteck 227" width="34.357" height="1.858" transform="translate(130.294 109.755)" fill="#e6e8ec"/>
    <rect id="Rechteck_228" data-name="Rechteck 228" width="34.357" height="1.858" transform="translate(130.294 112.85)" fill="#e6e8ec"/>
    <rect id="Rechteck_229" data-name="Rechteck 229" width="42.714" height="32.19" transform="translate(173.163 85.303)" opacity="0.1"/>
    <path id="Pfad_719" data-name="Pfad 719" d="M262.733,310.18h-65.9a6.037,6.037,0,0,0-6.048,6.034v91.318a6.037,6.037,0,0,0,6.046,6.03h65.9a6.037,6.037,0,0,0,6.046-6.03V316.214A6.037,6.037,0,0,0,262.733,310.18Z" transform="translate(-159.41 -250.257)" fill="url(#linear-gradient)"/>
    <rect id="Rechteck_230" data-name="Rechteck 230" width="76.141" height="101.213" rx="20" transform="translate(32.3 61.161)" fill="#535461"/>
    <rect id="Rechteck_231" data-name="Rechteck 231" width="68.403" height="82.065" transform="translate(36.168 70.736)" fill="#f1f1f4"/>
    <circle id="Ellipse_175" data-name="Ellipse 175" cx="0.928" cy="0.928" r="0.928" transform="translate(69.132 64.877)" fill="#fff"/>
    <circle id="Ellipse_176" data-name="Ellipse 176" cx="2.786" cy="2.786" r="2.786" transform="translate(67.274 154.636)" fill="#fff"/>
    <rect id="Rechteck_232" data-name="Rechteck 232" width="19.51" height="14.705" transform="translate(39.124 79.122)" fill="#fff"/>
    <rect id="Rechteck_233" data-name="Rechteck 233" width="6.504" height="3.676" transform="translate(41.034 80.395)" fill="#42659f" opacity="0.2"/>
    <rect id="Rechteck_234" data-name="Rechteck 234" width="7.635" height="0.848" transform="translate(49.092 80.395)" fill="#e6e8ec"/>
    <rect id="Rechteck_235" data-name="Rechteck 235" width="5.373" height="0.848" transform="translate(49.092 81.809)" fill="#e6e8ec"/>
    <rect id="Rechteck_236" data-name="Rechteck 236" width="7.635" height="0.848" transform="translate(49.092 83.223)" fill="#e6e8ec"/>
    <rect id="Rechteck_237" data-name="Rechteck 237" width="15.693" height="0.848" transform="translate(41.034 84.637)" fill="#e6e8ec"/>
    <rect id="Rechteck_238" data-name="Rechteck 238" width="15.693" height="0.848" transform="translate(41.034 86.051)" fill="#e6e8ec"/>
    <rect id="Rechteck_239" data-name="Rechteck 239" width="15.693" height="0.848" transform="translate(41.034 87.465)" fill="#e6e8ec"/>
    <rect id="Rechteck_240" data-name="Rechteck 240" width="14.422" height="0.848" transform="translate(41.034 88.879)" fill="#e6e8ec"/>
    <rect id="Rechteck_241" data-name="Rechteck 241" width="15.693" height="0.848" transform="translate(41.034 90.293)" fill="#e6e8ec"/>
    <rect id="Rechteck_242" data-name="Rechteck 242" width="15.693" height="0.848" transform="translate(41.034 91.706)" fill="#e6e8ec"/>
    <rect id="Rechteck_243" data-name="Rechteck 243" width="19.51" height="14.705" transform="translate(60.616 79.122)" fill="#fff"/>
    <rect id="Rechteck_244" data-name="Rechteck 244" width="6.504" height="3.676" transform="translate(62.523 80.395)" fill="#42659f" opacity="0.2"/>
    <rect id="Rechteck_245" data-name="Rechteck 245" width="7.635" height="0.848" transform="translate(70.583 80.395)" fill="#e6e8ec"/>
    <rect id="Rechteck_246" data-name="Rechteck 246" width="5.373" height="0.848" transform="translate(70.583 81.809)" fill="#e6e8ec"/>
    <rect id="Rechteck_247" data-name="Rechteck 247" width="7.635" height="0.848" transform="translate(70.583 83.223)" fill="#e6e8ec"/>
    <rect id="Rechteck_248" data-name="Rechteck 248" width="15.693" height="0.848" transform="translate(62.523 84.637)" fill="#e6e8ec"/>
    <rect id="Rechteck_249" data-name="Rechteck 249" width="15.693" height="0.848" transform="translate(62.523 86.051)" fill="#e6e8ec"/>
    <rect id="Rechteck_250" data-name="Rechteck 250" width="15.693" height="0.848" transform="translate(62.523 87.465)" fill="#e6e8ec"/>
    <rect id="Rechteck_251" data-name="Rechteck 251" width="14.422" height="0.848" transform="translate(62.523 88.879)" fill="#e6e8ec"/>
    <rect id="Rechteck_252" data-name="Rechteck 252" width="15.693" height="0.848" transform="translate(62.523 90.293)" fill="#e6e8ec"/>
    <rect id="Rechteck_253" data-name="Rechteck 253" width="15.693" height="0.848" transform="translate(62.523 91.706)" fill="#e6e8ec"/>
    <rect id="Rechteck_254" data-name="Rechteck 254" width="19.51" height="14.705" transform="translate(82.105 79.122)" fill="#fff"/>
    <rect id="Rechteck_255" data-name="Rechteck 255" width="6.504" height="3.676" transform="translate(84.014 80.395)" fill="#42659f" opacity="0.2"/>
    <rect id="Rechteck_256" data-name="Rechteck 256" width="7.635" height="0.848" transform="translate(92.072 80.395)" fill="#e6e8ec"/>
    <rect id="Rechteck_257" data-name="Rechteck 257" width="5.373" height="0.848" transform="translate(92.072 81.809)" fill="#e6e8ec"/>
    <rect id="Rechteck_258" data-name="Rechteck 258" width="7.635" height="0.848" transform="translate(92.072 83.223)" fill="#e6e8ec"/>
    <rect id="Rechteck_259" data-name="Rechteck 259" width="15.693" height="0.848" transform="translate(84.014 84.637)" fill="#e6e8ec"/>
    <rect id="Rechteck_260" data-name="Rechteck 260" width="15.693" height="0.848" transform="translate(84.014 86.051)" fill="#e6e8ec"/>
    <rect id="Rechteck_261" data-name="Rechteck 261" width="15.693" height="0.848" transform="translate(84.014 87.465)" fill="#e6e8ec"/>
    <rect id="Rechteck_262" data-name="Rechteck 262" width="14.422" height="0.848" transform="translate(84.014 88.879)" fill="#e6e8ec"/>
    <rect id="Rechteck_263" data-name="Rechteck 263" width="15.693" height="0.848" transform="translate(84.014 90.293)" fill="#e6e8ec"/>
    <rect id="Rechteck_264" data-name="Rechteck 264" width="15.693" height="0.848" transform="translate(84.014 91.706)" fill="#e6e8ec"/>
    <rect id="Rechteck_265" data-name="Rechteck 265" width="19.51" height="14.705" transform="translate(39.124 95.663)" fill="#fff"/>
    <rect id="Rechteck_266" data-name="Rechteck 266" width="6.504" height="3.676" transform="translate(41.034 96.937)" fill="#42659f" opacity="0.2"/>
    <rect id="Rechteck_267" data-name="Rechteck 267" width="7.635" height="0.848" transform="translate(49.092 96.937)" fill="#e6e8ec"/>
    <rect id="Rechteck_268" data-name="Rechteck 268" width="5.373" height="0.848" transform="translate(49.092 98.351)" fill="#e6e8ec"/>
    <rect id="Rechteck_269" data-name="Rechteck 269" width="7.635" height="0.848" transform="translate(49.092 99.765)" fill="#e6e8ec"/>
    <rect id="Rechteck_270" data-name="Rechteck 270" width="15.693" height="0.848" transform="translate(41.034 101.179)" fill="#e6e8ec"/>
    <rect id="Rechteck_271" data-name="Rechteck 271" width="15.693" height="0.848" transform="translate(41.034 102.592)" fill="#e6e8ec"/>
    <rect id="Rechteck_272" data-name="Rechteck 272" width="15.693" height="0.848" transform="translate(41.034 104.006)" fill="#e6e8ec"/>
    <rect id="Rechteck_273" data-name="Rechteck 273" width="14.422" height="0.848" transform="translate(41.034 105.42)" fill="#e6e8ec"/>
    <rect id="Rechteck_274" data-name="Rechteck 274" width="15.693" height="0.848" transform="translate(41.034 106.834)" fill="#e6e8ec"/>
    <rect id="Rechteck_275" data-name="Rechteck 275" width="15.693" height="0.848" transform="translate(41.034 108.248)" fill="#e6e8ec"/>
    <rect id="Rechteck_276" data-name="Rechteck 276" width="19.51" height="14.705" transform="translate(60.616 95.663)" fill="#fff"/>
    <rect id="Rechteck_277" data-name="Rechteck 277" width="6.504" height="3.676" transform="translate(62.523 96.937)" fill="#42659f" opacity="0.2"/>
    <rect id="Rechteck_278" data-name="Rechteck 278" width="7.635" height="0.848" transform="translate(70.583 96.937)" fill="#e6e8ec"/>
    <rect id="Rechteck_279" data-name="Rechteck 279" width="5.373" height="0.848" transform="translate(70.583 98.351)" fill="#e6e8ec"/>
    <rect id="Rechteck_280" data-name="Rechteck 280" width="7.635" height="0.848" transform="translate(70.583 99.765)" fill="#e6e8ec"/>
    <rect id="Rechteck_281" data-name="Rechteck 281" width="15.693" height="0.848" transform="translate(62.523 101.179)" fill="#e6e8ec"/>
    <rect id="Rechteck_282" data-name="Rechteck 282" width="15.693" height="0.848" transform="translate(62.523 102.592)" fill="#e6e8ec"/>
    <rect id="Rechteck_283" data-name="Rechteck 283" width="15.693" height="0.848" transform="translate(62.523 104.006)" fill="#e6e8ec"/>
    <rect id="Rechteck_284" data-name="Rechteck 284" width="14.422" height="0.848" transform="translate(62.523 105.42)" fill="#e6e8ec"/>
    <rect id="Rechteck_285" data-name="Rechteck 285" width="15.693" height="0.848" transform="translate(62.523 106.834)" fill="#e6e8ec"/>
    <rect id="Rechteck_286" data-name="Rechteck 286" width="15.693" height="0.848" transform="translate(62.523 108.248)" fill="#e6e8ec"/>
    <rect id="Rechteck_287" data-name="Rechteck 287" width="19.51" height="14.705" transform="translate(82.105 95.663)" fill="#fff"/>
    <rect id="Rechteck_288" data-name="Rechteck 288" width="6.504" height="3.676" transform="translate(84.014 96.937)" fill="#42659f" opacity="0.2"/>
    <rect id="Rechteck_289" data-name="Rechteck 289" width="7.635" height="0.848" transform="translate(92.072 96.937)" fill="#e6e8ec"/>
    <rect id="Rechteck_290" data-name="Rechteck 290" width="5.373" height="0.848" transform="translate(92.072 98.351)" fill="#e6e8ec"/>
    <rect id="Rechteck_291" data-name="Rechteck 291" width="7.635" height="0.848" transform="translate(92.072 99.765)" fill="#e6e8ec"/>
    <rect id="Rechteck_292" data-name="Rechteck 292" width="15.693" height="0.848" transform="translate(84.014 101.179)" fill="#e6e8ec"/>
    <rect id="Rechteck_293" data-name="Rechteck 293" width="15.693" height="0.848" transform="translate(84.014 102.592)" fill="#e6e8ec"/>
    <rect id="Rechteck_294" data-name="Rechteck 294" width="15.693" height="0.848" transform="translate(84.014 104.006)" fill="#e6e8ec"/>
    <rect id="Rechteck_295" data-name="Rechteck 295" width="14.422" height="0.848" transform="translate(84.014 105.42)" fill="#e6e8ec"/>
    <rect id="Rechteck_296" data-name="Rechteck 296" width="15.693" height="0.848" transform="translate(84.014 106.834)" fill="#e6e8ec"/>
    <rect id="Rechteck_297" data-name="Rechteck 297" width="15.693" height="0.848" transform="translate(84.014 108.248)" fill="#e6e8ec"/>
    <rect id="Rechteck_298" data-name="Rechteck 298" width="19.51" height="14.705" transform="translate(39.124 112.859)" fill="#fff"/>
    <rect id="Rechteck_299" data-name="Rechteck 299" width="6.504" height="3.676" transform="translate(41.034 114.133)" fill="#42659f" opacity="0.2"/>
    <rect id="Rechteck_300" data-name="Rechteck 300" width="7.635" height="0.848" transform="translate(49.092 114.133)" fill="#e6e8ec"/>
    <rect id="Rechteck_301" data-name="Rechteck 301" width="5.373" height="0.848" transform="translate(49.092 115.547)" fill="#e6e8ec"/>
    <rect id="Rechteck_302" data-name="Rechteck 302" width="7.635" height="0.848" transform="translate(49.092 116.961)" fill="#e6e8ec"/>
    <rect id="Rechteck_303" data-name="Rechteck 303" width="15.693" height="0.848" transform="translate(41.034 118.374)" fill="#e6e8ec"/>
    <rect id="Rechteck_304" data-name="Rechteck 304" width="15.693" height="0.848" transform="translate(41.034 119.788)" fill="#e6e8ec"/>
    <rect id="Rechteck_305" data-name="Rechteck 305" width="15.693" height="0.848" transform="translate(41.034 121.202)" fill="#e6e8ec"/>
    <rect id="Rechteck_306" data-name="Rechteck 306" width="14.422" height="0.848" transform="translate(41.034 122.616)" fill="#e6e8ec"/>
    <rect id="Rechteck_307" data-name="Rechteck 307" width="15.693" height="0.848" transform="translate(41.034 124.03)" fill="#e6e8ec"/>
    <rect id="Rechteck_308" data-name="Rechteck 308" width="15.693" height="0.848" transform="translate(41.034 125.444)" fill="#e6e8ec"/>
    <rect id="Rechteck_309" data-name="Rechteck 309" width="19.51" height="14.705" transform="translate(60.616 112.859)" fill="#fff"/>
    <rect id="Rechteck_310" data-name="Rechteck 310" width="6.504" height="3.676" transform="translate(62.523 114.133)" fill="#42659f" opacity="0.2"/>
    <rect id="Rechteck_311" data-name="Rechteck 311" width="7.635" height="0.848" transform="translate(70.583 114.133)" fill="#e6e8ec"/>
    <rect id="Rechteck_312" data-name="Rechteck 312" width="5.373" height="0.848" transform="translate(70.583 115.547)" fill="#e6e8ec"/>
    <rect id="Rechteck_313" data-name="Rechteck 313" width="7.635" height="0.848" transform="translate(70.583 116.961)" fill="#e6e8ec"/>
    <rect id="Rechteck_314" data-name="Rechteck 314" width="15.693" height="0.848" transform="translate(62.523 118.374)" fill="#e6e8ec"/>
    <rect id="Rechteck_315" data-name="Rechteck 315" width="15.693" height="0.848" transform="translate(62.523 119.788)" fill="#e6e8ec"/>
    <rect id="Rechteck_316" data-name="Rechteck 316" width="15.693" height="0.848" transform="translate(62.523 121.202)" fill="#e6e8ec"/>
    <rect id="Rechteck_317" data-name="Rechteck 317" width="14.422" height="0.848" transform="translate(62.523 122.616)" fill="#e6e8ec"/>
    <rect id="Rechteck_318" data-name="Rechteck 318" width="15.693" height="0.848" transform="translate(62.523 124.03)" fill="#e6e8ec"/>
    <rect id="Rechteck_319" data-name="Rechteck 319" width="15.693" height="0.848" transform="translate(62.523 125.444)" fill="#e6e8ec"/>
    <rect id="Rechteck_320" data-name="Rechteck 320" width="19.51" height="14.705" transform="translate(82.105 112.859)" fill="#fff"/>
    <rect id="Rechteck_321" data-name="Rechteck 321" width="6.504" height="3.676" transform="translate(84.014 114.133)" fill="#42659f" opacity="0.2"/>
    <rect id="Rechteck_322" data-name="Rechteck 322" width="7.635" height="0.848" transform="translate(92.072 114.133)" fill="#e6e8ec"/>
    <rect id="Rechteck_323" data-name="Rechteck 323" width="5.373" height="0.848" transform="translate(92.072 115.547)" fill="#e6e8ec"/>
    <rect id="Rechteck_324" data-name="Rechteck 324" width="7.635" height="0.848" transform="translate(92.072 116.961)" fill="#e6e8ec"/>
    <rect id="Rechteck_325" data-name="Rechteck 325" width="15.693" height="0.848" transform="translate(84.014 118.374)" fill="#e6e8ec"/>
    <rect id="Rechteck_326" data-name="Rechteck 326" width="15.693" height="0.848" transform="translate(84.014 119.788)" fill="#e6e8ec"/>
    <rect id="Rechteck_327" data-name="Rechteck 327" width="15.693" height="0.848" transform="translate(84.014 121.202)" fill="#e6e8ec"/>
    <rect id="Rechteck_328" data-name="Rechteck 328" width="14.422" height="0.848" transform="translate(84.014 122.616)" fill="#e6e8ec"/>
    <rect id="Rechteck_329" data-name="Rechteck 329" width="15.693" height="0.848" transform="translate(84.014 124.03)" fill="#e6e8ec"/>
    <rect id="Rechteck_330" data-name="Rechteck 330" width="15.693" height="0.848" transform="translate(84.014 125.444)" fill="#e6e8ec"/>
    <rect id="Rechteck_331" data-name="Rechteck 331" width="19.51" height="14.705" transform="translate(39.124 129.401)" fill="#fff"/>
    <rect id="Rechteck_332" data-name="Rechteck 332" width="6.504" height="3.676" transform="translate(41.034 130.674)" fill="#42659f" opacity="0.2"/>
    <rect id="Rechteck_333" data-name="Rechteck 333" width="7.635" height="0.848" transform="translate(49.092 130.674)" fill="#e6e8ec"/>
    <rect id="Rechteck_334" data-name="Rechteck 334" width="5.373" height="0.848" transform="translate(49.092 132.088)" fill="#e6e8ec"/>
    <rect id="Rechteck_335" data-name="Rechteck 335" width="7.635" height="0.848" transform="translate(49.092 133.502)" fill="#e6e8ec"/>
    <rect id="Rechteck_336" data-name="Rechteck 336" width="15.693" height="0.848" transform="translate(41.034 134.916)" fill="#e6e8ec"/>
    <rect id="Rechteck_337" data-name="Rechteck 337" width="15.693" height="0.848" transform="translate(41.034 136.33)" fill="#e6e8ec"/>
    <rect id="Rechteck_338" data-name="Rechteck 338" width="15.693" height="0.848" transform="translate(41.034 137.744)" fill="#e6e8ec"/>
    <rect id="Rechteck_339" data-name="Rechteck 339" width="14.422" height="0.848" transform="translate(41.034 139.158)" fill="#e6e8ec"/>
    <rect id="Rechteck_340" data-name="Rechteck 340" width="15.693" height="0.848" transform="translate(41.034 140.572)" fill="#e6e8ec"/>
    <rect id="Rechteck_341" data-name="Rechteck 341" width="15.693" height="0.848" transform="translate(41.034 141.986)" fill="#e6e8ec"/>
    <rect id="Rechteck_342" data-name="Rechteck 342" width="19.51" height="14.705" transform="translate(60.616 129.401)" fill="#fff"/>
    <rect id="Rechteck_343" data-name="Rechteck 343" width="6.504" height="3.676" transform="translate(62.523 130.674)" fill="#42659f" opacity="0.2"/>
    <rect id="Rechteck_344" data-name="Rechteck 344" width="7.635" height="0.848" transform="translate(70.583 130.674)" fill="#e6e8ec"/>
    <rect id="Rechteck_345" data-name="Rechteck 345" width="5.373" height="0.848" transform="translate(70.583 132.088)" fill="#e6e8ec"/>
    <rect id="Rechteck_346" data-name="Rechteck 346" width="7.635" height="0.848" transform="translate(70.583 133.502)" fill="#e6e8ec"/>
    <rect id="Rechteck_347" data-name="Rechteck 347" width="15.693" height="0.848" transform="translate(62.523 134.916)" fill="#e6e8ec"/>
    <rect id="Rechteck_348" data-name="Rechteck 348" width="15.693" height="0.848" transform="translate(62.523 136.33)" fill="#e6e8ec"/>
    <rect id="Rechteck_349" data-name="Rechteck 349" width="15.693" height="0.848" transform="translate(62.523 137.744)" fill="#e6e8ec"/>
    <rect id="Rechteck_350" data-name="Rechteck 350" width="14.422" height="0.848" transform="translate(62.523 139.158)" fill="#e6e8ec"/>
    <rect id="Rechteck_351" data-name="Rechteck 351" width="15.693" height="0.848" transform="translate(62.523 140.572)" fill="#e6e8ec"/>
    <rect id="Rechteck_352" data-name="Rechteck 352" width="15.693" height="0.848" transform="translate(62.523 141.986)" fill="#e6e8ec"/>
    <rect id="Rechteck_353" data-name="Rechteck 353" width="19.51" height="14.705" transform="translate(82.105 129.401)" opacity="0.1"/>
    <path id="Pfad_720" data-name="Pfad 720" d="M161.754,442.62h-33.84a3.347,3.347,0,0,0-3.354,3.34v74.105a3.347,3.347,0,0,0,3.354,3.34h33.84a3.347,3.347,0,0,0,3.354-3.34v-74.1A3.347,3.347,0,0,0,161.754,442.62Z" transform="translate(-108.666 -351.745)" fill="url(#linear-gradient)"/>
    <rect id="Rechteck_354" data-name="Rechteck 354" width="39.928" height="79.857" rx="11" transform="translate(16.205 91.496)" fill="#535461"/>
    <rect id="Rechteck_355" data-name="Rechteck 355" width="34.046" height="64.998" transform="translate(19.145 98.923)" fill="#f1f1f4"/>
    <circle id="Ellipse_177" data-name="Ellipse 177" cx="0.308" cy="0.308" r="0.308" transform="translate(31.835 94.901)" fill="#fff"/>
    <rect id="Rechteck_356" data-name="Rechteck 356" width="6.81" height="0.619" rx="0.31" transform="translate(33.693 94.899)" fill="#fff"/>
    <circle id="Ellipse_178" data-name="Ellipse 178" cx="2.166" cy="2.166" r="2.166" transform="translate(33.847 164.851)" fill="#fff"/>
    <rect id="Rechteck_357" data-name="Rechteck 357" width="23.216" height="17.497" transform="translate(24.56 102.814)" opacity="0.1"/>
    <rect id="Rechteck_358" data-name="Rechteck 358" width="23.216" height="17.497" transform="translate(24.56 122.499)" fill="#fff"/>
    <rect id="Rechteck_359" data-name="Rechteck 359" width="7.738" height="4.375" transform="translate(26.831 124.014)" fill="#42659f" opacity="0.2"/>
    <rect id="Rechteck_360" data-name="Rechteck 360" width="9.084" height="1.01" transform="translate(36.42 124.014)" fill="#e6e8ec"/>
    <rect id="Rechteck_361" data-name="Rechteck 361" width="6.394" height="1.01" transform="translate(36.42 125.696)" fill="#e6e8ec"/>
    <rect id="Rechteck_362" data-name="Rechteck 362" width="9.084" height="1.01" transform="translate(36.42 127.377)" fill="#e6e8ec"/>
    <rect id="Rechteck_363" data-name="Rechteck 363" width="18.675" height="1.01" transform="translate(26.831 129.059)" fill="#e6e8ec"/>
    <rect id="Rechteck_364" data-name="Rechteck 364" width="18.675" height="1.01" transform="translate(26.831 130.742)" fill="#e6e8ec"/>
    <rect id="Rechteck_365" data-name="Rechteck 365" width="18.675" height="1.01" transform="translate(26.831 132.425)" fill="#e6e8ec"/>
    <rect id="Rechteck_366" data-name="Rechteck 366" width="17.161" height="1.01" transform="translate(26.831 134.107)" fill="#e6e8ec"/>
    <rect id="Rechteck_367" data-name="Rechteck 367" width="18.675" height="1.01" transform="translate(26.831 135.79)" fill="#e6e8ec"/>
    <rect id="Rechteck_368" data-name="Rechteck 368" width="18.675" height="1.01" transform="translate(26.831 137.473)" fill="#e6e8ec"/>
    <rect id="Rechteck_369" data-name="Rechteck 369" width="23.216" height="17.497" transform="translate(24.56 142.224)" fill="#fff"/>
    <rect id="Rechteck_370" data-name="Rechteck 370" width="7.738" height="4.375" transform="translate(26.831 143.738)" fill="#42659f" opacity="0.2"/>
    <rect id="Rechteck_371" data-name="Rechteck 371" width="9.084" height="1.01" transform="translate(36.42 143.738)" fill="#e6e8ec"/>
    <rect id="Rechteck_372" data-name="Rechteck 372" width="6.394" height="1.01" transform="translate(36.42 145.421)" fill="#e6e8ec"/>
    <rect id="Rechteck_373" data-name="Rechteck 373" width="9.084" height="1.01" transform="translate(36.42 147.104)" fill="#e6e8ec"/>
    <rect id="Rechteck_374" data-name="Rechteck 374" width="18.675" height="1.01" transform="translate(26.831 148.786)" fill="#e6e8ec"/>
    <rect id="Rechteck_375" data-name="Rechteck 375" width="18.675" height="1.01" transform="translate(26.831 150.469)" fill="#e6e8ec"/>
    <rect id="Rechteck_376" data-name="Rechteck 376" width="18.675" height="1.01" transform="translate(26.831 152.152)" fill="#e6e8ec"/>
    <rect id="Rechteck_377" data-name="Rechteck 377" width="17.161" height="1.01" transform="translate(26.831 153.834)" fill="#e6e8ec"/>
    <rect id="Rechteck_378" data-name="Rechteck 378" width="18.675" height="1.01" transform="translate(26.831 155.515)" fill="#e6e8ec"/>
    <rect id="Rechteck_379" data-name="Rechteck 379" width="18.675" height="1.01" transform="translate(26.831 157.197)" fill="#e6e8ec"/>
    <path id="Pfad_721" data-name="Pfad 721" d="M388.761,627.182c-1.57-1.9-3.473-4.094-3.206-6.63.215-2.054-.3-3.952-.2-6.011.145-2.926-.446-5.219-2.554-7.1-1.232-1.1-3.291-1.958-3.9-1.739-1.215.435-2.54.269-3.791.561a3.838,3.838,0,0,0-1.972.991,2.407,2.407,0,0,0-.442,2.76A4.66,4.66,0,0,0,375,616.563a3.464,3.464,0,0,0-1.928,2.919,19.963,19.963,0,0,1-.935,3.45,5.617,5.617,0,0,1-.57.234c.042.016.086.028.131.044-.091.035-.185.07-.276.1a3.006,3.006,0,0,0,.519.15,19.826,19.826,0,0,1-2.547,4.644s-2.646.584-3.674-.437c0,0,.168.2.395.491-1.007-.418-2.657-1.1-4.069-1.659-1.024-.407-1.288,0-1.274.566a1.891,1.891,0,0,0-.715.234,6.9,6.9,0,0,0-.949-.509c-.589-.145-2.5-1.169-4.41,2.337a81.255,81.255,0,0,1-6.158,8.516c-4.265,1.961-9.816,4.44-11.877,5.069h-1.318c-.173-.283-.294-.467-.294-.467l-.1.068-.044-.068a10.862,10.862,0,0,1-5.233,1.811,4.958,4.958,0,0,1-1.112-.145,10.913,10.913,0,0,0-2.676-.43,1.579,1.579,0,0,0-1.386.481h0a1.271,1.271,0,0,0-.091.133h0a1.563,1.563,0,0,0-.077.147h0c-.023.051-.044.105-.065.161a.329.329,0,0,0,.082.276,1.472,1.472,0,0,0,.115.145l.072.079a11.683,11.683,0,0,0,1.69,1.306c.217.147.446.3.687.451l.456.29.407.255.164.1.182.112.325.2.194.117.365.217.294.175c.771.467,1.542.9,2.234,1.288l.486.273.047.026.311.173.54.3.372.2.173.1.187.1.037.021.323.175a.468.468,0,0,0,.376-.1c.093-.4.323-1.248.566-1.313a8.415,8.415,0,0,0,1.606-3.164h2.868a12.655,12.655,0,0,0,1.676-.255,2.78,2.78,0,0,1-2.045.717,2,2,0,0,0-2.463,1.169l-.014.044v.336a.1.1,0,0,0,.014.058c.014.019,0,.026,0,.037a.7.7,0,0,0,.03.075v.019a.764.764,0,0,0,.054.089l.023.03.047.058.033.033.054.051.04.033.063.047.047.03.077.044.051.028.1.044.049.021c.051.021.105.042.164.061s.2.061.325.091l.124.03.18.042.1.021.393.079.192.035.157.028.36.063.7.115.619.094.806.115.178.023.29.04.416.056.285.037h0l.736.093.234.028.467.056c.61.072,1.2.143,1.743.2l.629.07.318.035.136.014.381.042.213.023.259.028.367.037h.04l.234.023h0a.213.213,0,0,0,.234-.208h0v-.023a.208.208,0,0,0,.035-.112,4.827,4.827,0,0,1,.131-1.038c.016-.058.035-.119.054-.178l.023-.068c.026-.072.051-.145.082-.22a1.585,1.585,0,0,0,.054-.161l.014-.051a.441.441,0,0,1,.021-.089,10.742,10.742,0,0,0-.164-3.629,3.94,3.94,0,0,0-.161-.7.287.287,0,0,0,.056,0,1.674,1.674,0,0,0,.425-.234c2.166-.774,4-1.657,4.574-2.543a3.959,3.959,0,0,1,2.8.292c1.122.559,9.612,3.328,13.567,4.609.7.612,1.267.97,1.573.935,0,0,5.032.813,7.056-.776.18.124.292.192.292.192s2.94-1.461,3.382-3.358c.143-.615.271-1.524.4-2.529a3.676,3.676,0,0,0,1.068-2.585c.091-3.19,1.327-6.834,2.244-10.08a4.036,4.036,0,0,0,2.571-.626l-.044-.058Zm-16.855,4.777-.561-.189a4.675,4.675,0,0,0,.488-.813Zm-3.164,1.341,3.407,2.045.03.416a2.985,2.985,0,0,0,.028.951,26.217,26.217,0,0,1-3.464-3.412Zm-1.391-2.977c-.372-.154-.68-.292-.89-.407l.79.049a1.765,1.765,0,0,1,.1.358Zm-9.114,3.33s.589-1.313,1.912.876c.206.341.584.881,1.084,1.554l-3.847-.516a5.609,5.609,0,0,0,.846-1.914Z" transform="translate(-261.696 -476.692)" fill="url(#linear-gradient-4)"/>
    <path id="Pfad_722" data-name="Pfad 722" d="M486,695.775s-2.7-1.136-4.824-1.987-.851,1.987-.851,1.987a34.085,34.085,0,0,1,3.548,1.136,21.065,21.065,0,0,0,2.98.283Z" transform="translate(-380.997 -544.093)" fill="#f7c4a7"/>
    <path id="Pfad_723" data-name="Pfad 723" d="M486,695.775s-2.7-1.136-4.824-1.987-.851,1.987-.851,1.987a34.085,34.085,0,0,1,3.548,1.136,21.065,21.065,0,0,0,2.98.283Z" transform="translate(-380.997 -544.093)" opacity="0.05"/>
    <path id="Pfad_724" data-name="Pfad 724" d="M513.145,652.7s-4.824-2.554-5.677,2.412a20.274,20.274,0,0,1-3.541,8.374s-2.554.568-3.548-.425c0,0,2.412,2.837,1.276,3.122,0,0,2.554,1.844,3.69,1.276s1.986-4.4,2.412-5.392S509.745,652.411,513.145,652.7Z" transform="translate(-396.655 -512.223)" fill="#575988"/>
    <path id="Pfad_725" data-name="Pfad 725" d="M513.145,652.7s-4.824-2.554-5.677,2.412a20.274,20.274,0,0,1-3.541,8.374s-2.554.568-3.548-.425c0,0,2.412,2.837,1.276,3.122,0,0,2.554,1.844,3.69,1.276s1.986-4.4,2.412-5.392S509.745,652.411,513.145,652.7Z" transform="translate(-396.655 -512.223)" fill="#0a3250" opacity="0.1"/>
    <path id="Pfad_726" data-name="Pfad 726" d="M543.49,635.409s2.98,3.405,3.122,6.242,3.405-2.98,3.69-3.122-2.839-4.964-3.125-6.523S543.49,635.409,543.49,635.409Z" transform="translate(-429.69 -496.639)" fill="#f7c4a7"/>
    <path id="Pfad_727" data-name="Pfad 727" d="M489.539,598.67l-1.879,1.7.886,3.583,2.412-2.269-.283-2.269Z" transform="translate(-373.683 -458.444)" fill="#f7c4a7"/>
    <path id="Pfad_728" data-name="Pfad 728" d="M317.133,706.59H313.87l1.276,3.12,3.122-.851Z" transform="translate(-240.508 -541.143)" fill="#f7c4a7"/>
    <path id="Pfad_729" data-name="Pfad 729" d="M339.966,759.78s-3.375,2.353-6.266,1.62-3.671-.467-4.008.488c-.311.869,8.065,5.471,9.4,6.2a.152.152,0,0,0,.234-.1c.091-.386.311-1.213.545-1.276a7.6,7.6,0,0,0,1.636-3.723A10.638,10.638,0,0,0,339.966,759.78Z" transform="translate(-265.852 -594.784)" opacity="0.1"/>
    <path id="Pfad_730" data-name="Pfad 730" d="M339.366,759.78s-3.375,2.353-6.266,1.62-3.671-.467-4.008.488c-.311.869,8.065,5.471,9.4,6.2a.152.152,0,0,0,.234-.1c.091-.386.311-1.213.544-1.276a7.6,7.6,0,0,0,1.636-3.723A10.639,10.639,0,0,0,339.366,759.78Z" transform="translate(-265.392 -594.784)" fill="#f3b5b7"/>
    <path id="Pfad_731" data-name="Pfad 731" d="M404.558,731.416l-9.507-1.276s-15.467,7.378-17.31,7.521l.425,3.272H381c1.136,0,12.2-2.412,13.763-4.824a3.8,3.8,0,0,1,2.7.283c1.419.7,15.041,5.109,15.041,5.109Z" transform="translate(-302.677 -572.071)" fill="#575988"/>
    <path id="Pfad_732" data-name="Pfad 732" d="M404.558,731.416l-9.507-1.276s-15.467,7.378-17.31,7.521l.425,3.272H381c1.136,0,12.2-2.412,13.763-4.824a3.8,3.8,0,0,1,2.7.283c1.419.7,15.041,5.109,15.041,5.109Z" transform="translate(-302.677 -572.071)" fill="#0a3250" opacity="0.1"/>
    <path id="Pfad_733" data-name="Pfad 733" d="M358.531,699.3l-1.561,1.987,1.561.851,2.272-1.7Z" transform="translate(-273.536 -535.557)" fill="#f7c4a7"/>
    <path id="Pfad_734" data-name="Pfad 734" d="M445.509,706.222s-5.1-4.37-5.462-5.165-8.727-6.184-9.294-6.326S428.341,693.6,426.5,697s-8.647,11.634-8.647,11.634,2.129,2.98,2.837,2.837,8.647-6.81,9.222-10.075c0,0,.568-1.276,1.844.851s9.507,12.344,11.068,12.2c0,0,6.1.993,7.378-1.419S445.509,706.222,445.509,706.222Z" transform="translate(-333.413 -544.75)" fill="#0a3250"/>
    <rect id="Rechteck_380" data-name="Rechteck 380" width="21.246" height="16.011" transform="translate(89.417 138.564)" fill="url(#linear-gradient-5)"/>
    <rect id="Rechteck_381" data-name="Rechteck 381" width="19.51" height="14.705" transform="translate(90.284 139.216)" fill="#fff"/>
    <rect id="Rechteck_382" data-name="Rechteck 382" width="6.504" height="3.676" transform="translate(92.194 140.49)" fill="#42659f" opacity="0.2"/>
    <rect id="Rechteck_383" data-name="Rechteck 383" width="7.635" height="0.848" transform="translate(100.252 140.49)" fill="#e6e8ec"/>
    <rect id="Rechteck_384" data-name="Rechteck 384" width="5.373" height="0.848" transform="translate(100.252 141.904)" fill="#e6e8ec"/>
    <rect id="Rechteck_385" data-name="Rechteck 385" width="7.635" height="0.848" transform="translate(100.252 143.318)" fill="#e6e8ec"/>
    <rect id="Rechteck_386" data-name="Rechteck 386" width="15.693" height="0.848" transform="translate(92.194 144.732)" fill="#e6e8ec"/>
    <rect id="Rechteck_387" data-name="Rechteck 387" width="15.693" height="0.848" transform="translate(92.194 146.146)" fill="#e6e8ec"/>
    <rect id="Rechteck_388" data-name="Rechteck 388" width="15.693" height="0.848" transform="translate(92.194 147.559)" fill="#e6e8ec"/>
    <rect id="Rechteck_389" data-name="Rechteck 389" width="14.422" height="0.848" transform="translate(92.194 148.973)" fill="#e6e8ec"/>
    <rect id="Rechteck_390" data-name="Rechteck 390" width="15.693" height="0.848" transform="translate(92.194 150.387)" fill="#e6e8ec"/>
    <rect id="Rechteck_391" data-name="Rechteck 391" width="15.693" height="0.848" transform="translate(92.194 151.801)" fill="#e6e8ec"/>
    <path id="Pfad_735" data-name="Pfad 735" d="M531.638,655.032s-1.774.781-1.916,4.043-3.272,8.8-3.272,8.8l.283,6.527s3.405,3.405,3.69,5.534,2.7,3.548,2.7,3.548,2.837-1.419,3.272-3.272.7-6.385,1.419-8.089.283-12.344.283-12.344l-2.129-3.69-1.136-1.276-2.98,3.405S530.22,656.023,531.638,655.032Z" transform="translate(-416.633 -514.346)" fill="#f3b5b7"/>
    <path id="Pfad_736" data-name="Pfad 736" d="M526.548,672.906s-.425-5.109.851-6.242l2.554-7.245a24.863,24.863,0,0,0,.781-3.76c-.143-.285-3.335,2.767-3.335,2.767l-2.129,7.521.568,7.946Z" transform="translate(-415.728 -514.982)" opacity="0.1"/>
    <path id="Pfad_737" data-name="Pfad 737" d="M525.938,672.678s-.425-5.109.851-6.242l2.554-7.245a25.586,25.586,0,0,0,.851-3.83c-.143-.283-3.405,2.837-3.405,2.837l-2.129,7.521.568,7.946Z" transform="translate(-415.261 -514.754)" fill="#0a3250"/>
    <path id="Pfad_738" data-name="Pfad 738" d="M487.607,702s-7.1-2.269-7.521-2.837-4.966-4.256-6.527-1.7,5.817,3.272,5.817,3.272l7.521,4.541Z" transform="translate(-375.936 -546.346)" fill="#f7c4a7"/>
    <path id="Pfad_739" data-name="Pfad 739" d="M389.674,761.619l-2.1-.379s-3.44,4.405-5.23,3.959-3.44,1.482-1.547,2.1c1.711.559,9.093,1.341,10.505,1.486a.206.206,0,0,0,.234-.2,4.517,4.517,0,0,1,.313-1.6c.379-.935,0-2.926-.105-3.683a3.664,3.664,0,0,0-.414-1.274Z" transform="translate(-304.373 -595.903)" opacity="0.1"/>
    <path id="Pfad_740" data-name="Pfad 740" d="M389.5,762.209l-2.1-.379s-3.435,4.408-5.237,3.959-3.44,1.482-1.547,2.1c1.711.559,9.093,1.341,10.505,1.486a.206.206,0,0,0,.234-.2,4.517,4.517,0,0,1,.313-1.6c.379-.935,0-2.926-.105-3.683a3.665,3.665,0,0,0-.414-1.274Z" transform="translate(-304.235 -596.355)" fill="#f3b5b7"/>
    <circle id="Ellipse_179" data-name="Ellipse 179" cx="4.541" cy="4.541" r="4.541" transform="translate(110.322 131.322)" opacity="0.1"/>
    <circle id="Ellipse_180" data-name="Ellipse 180" cx="4.541" cy="4.541" r="4.541" transform="translate(109.897 131.322)" fill="#f7c4a7"/>
    <path id="Pfad_741" data-name="Pfad 741" d="M545.072,654.24s5.392,1.844,5.392,5.677-2.98,9.932-3.122,14.9-7.946,4.256-7.946,4.256-1.136-16.743,0-18.021S545.639,654.808,545.072,654.24Z" transform="translate(-426.165 -513.909)" fill="#0a3250"/>
    <path id="Pfad_742" data-name="Pfad 742" d="M534.911,676.033s-1.986,8.8-6.67,7.245c0,0-2.412,3.548-.7,5.109,0,0,4.116.993,6.81-1.7s4.676-3.695,5.1-6.967.7-7.8-.7-7.378S534.911,676.033,534.911,676.033Z" transform="translate(-416.998 -527.757)" opacity="0.1"/>
    <path id="Pfad_743" data-name="Pfad 743" d="M535.521,675.47s-1.986,8.8-6.67,7.245c0,0-2.412,3.548-.7,5.109,0,0,4.116.993,6.81-1.7s4.674-3.69,5.109-6.953.7-7.8-.7-7.378S535.521,675.47,535.521,675.47Z" transform="translate(-417.465 -527.335)" fill="#0a3250"/>
    <path id="Pfad_744" data-name="Pfad 744" d="M430.378,784.48a.045.045,0,0,1-.014.04,4.155,4.155,0,0,0-.234.75,2.765,2.765,0,0,1,.119-.339A2.058,2.058,0,0,0,430.378,784.48Z" transform="translate(-342.823 -613.711)" fill="#dddbe2"/>
    <path id="Pfad_745" data-name="Pfad 745" d="M380.789,783.249c-.584-.192-.83-.507-.839-.839-.234.467-.089.982.736,1.253,1.711.559,9.1,1.341,10.505,1.486a.206.206,0,0,0,.234-.2h0a.208.208,0,0,0-.185-.21C389.686,784.567,382.476,783.8,380.789,783.249Z" transform="translate(-304.293 -612.125)" fill="#dddbe2"/>
    <path id="Pfad_746" data-name="Pfad 746" d="M329.279,766.741a1.748,1.748,0,0,1,.138-.3,1.384,1.384,0,0,0-.334.552c-.311.869,8.065,5.469,9.4,6.2a.154.154,0,0,0,.234-.1h0a.154.154,0,0,0-.075-.171C337.159,772.11,328.97,767.6,329.279,766.741Z" transform="translate(-265.384 -599.887)" fill="#dddbe2"/>
    <path id="Pfad_747" data-name="Pfad 747" d="M372.747,788.138c-.075.021-.15.119-.217.259h.023c.061-.016.168-.138.3-.327a.276.276,0,0,1-.105.068Z" transform="translate(-298.684 -616.462)" fill="#dddbe2"/>
    <path id="Pfad_748" data-name="Pfad 748" d="M528.516,618.6a24.425,24.425,0,0,0-.778,2.8,6.163,6.163,0,0,1-3.8,3.94,4.167,4.167,0,0,0,4.354-1.323,13.634,13.634,0,0,0,2.447-4.321c1.655,1.112,1.454,3.669,2.008,5.66a6.277,6.277,0,0,0,3.342,3.994,5.983,5.983,0,0,0,5.118-.1c-1.517-1.851-3.676-4.389-3.419-6.852.208-2-1.225-3.52-1.124-5.52.14-2.842-.935-4.279-2.98-6.1-1.19-1.066.682-2.571-.851-2.129-.6.173-1.239-.467-1.83-.259-1.169.421-2.452.262-3.657.545C521.077,610.4,529.1,617.315,528.516,618.6Z" transform="translate(-414.709 -478.744)" opacity="0.1"/>
    <path id="Pfad_749" data-name="Pfad 749" d="M529.126,617.851a24.422,24.422,0,0,0-.778,2.8,6.163,6.163,0,0,1-3.8,3.94,4.167,4.167,0,0,0,4.354-1.323,13.633,13.633,0,0,0,2.447-4.321c1.655,1.112,1.454,3.669,2.008,5.66a6.278,6.278,0,0,0,3.342,3.994,5.983,5.983,0,0,0,5.118-.1c-1.517-1.851-3.534-3.973-3.272-6.427.208-2-.1-4.045,0-6.046a9.55,9.55,0,0,0-3.286-7.4,4.465,4.465,0,0,0-3.639-.989c-1.169.421-2.452.262-3.657.545C521.687,609.655,529.71,616.564,529.126,617.851Z" transform="translate(-415.177 -478.135)" fill="#b96b6b"/>
    <path id="Pfad_750" data-name="Pfad 750" d="M206.858,513.82c8.18-2.517,13.008-2.309,13.008-2.309l-.671-3.8a2.875,2.875,0,0,0,.566-.5s-.839-4.616,0-5.77,3.148-11.643,3.148-11.643v-3.569c4.207-1.468,9.126-9.965,9.126-9.965l6.191,15.941s6.188,12.274,7.027,12.692c.671.334,1,3.08,1.115,4.172l-.051.016c.026.264.037.428.037.428l.049-.033v.033a2.406,2.406,0,0,1,.327-.192,54.076,54.076,0,0,1-4.522,4.7c-.83.727.659,1.288,1.355,1.276a3.416,3.416,0,0,1,1.169.166c3.527,1.218,9.325-3.227,9.325-3.227l-1.451-4.048c.379-.03.612-.044.612-.044S248.5,491.571,246.293,490a10.05,10.05,0,0,1-1.87-1.771,6.544,6.544,0,0,1-1.479-4.543l.774-13.6c1.243-.182,2.045-.334,2.045-.334s.29-3.716.28-6.567a11.588,11.588,0,0,0-.28-3.3,9.426,9.426,0,0,1-.346-3.019c0-1.636.136-3.169.136-3.169a41.991,41.991,0,0,0,3.987-7.245,12.087,12.087,0,0,0,1.257-5.23,7.135,7.135,0,0,0-.168-1.743,2.185,2.185,0,0,0-.989-1.372c-1.327-.813-4.349-2.821-5.24-4.765-1.131-2.468-2.765-2.818-2.83-2.833l-.1-.435a4.078,4.078,0,0,0,1.313-1.991c.341-1.052.411-2.173.7-3.241.14-.514.334-1.012.467-1.526a6.027,6.027,0,0,0,.189-1.585,4.908,4.908,0,0,0-.467-2.255,3.783,3.783,0,0,0-2.851-2.136,4.141,4.141,0,0,1-1.984-.358c-.383-.273-.584-.738-.935-1.063a2.6,2.6,0,0,0-2.6-.3,5.536,5.536,0,0,0-2.842,2.213,11.555,11.555,0,0,1-1.206,1.87,17.686,17.686,0,0,1-1.491,1.129,3.038,3.038,0,0,0-1.169,2.337v.21a2.079,2.079,0,0,0,1.535,1.982,2.267,2.267,0,0,0,.7.019,5.665,5.665,0,0,0,4.2,7c-.014.075-.03.15-.047.234h.049a8.1,8.1,0,0,1-.379,1.066h-.068l.171-.3-2.407-.166a4.034,4.034,0,0,0-2.038.381,3.073,3.073,0,0,0-1.849,2.617c-.21,2.716-5.352,6.805-5.352,6.805-1.783,2.832-13.429,3.356-13.429,3.356s.051.065.075.1l-.234-.044-.881-.161s-2.727-8.077-5.349-6.609,4.51,9.442,4.51,9.442l2.061.138.208.014a12.586,12.586,0,0,1-.325,1.549h0c-.028.1-.049.168-.054.185h0a86.9,86.9,0,0,1,10.028-.526h.416l.294-.014c.234,2.531,3.842,7.675,3.842,7.675l2.227.467.168.035a18.621,18.621,0,0,1-2.711,4.111l-.734,4.092.058-.014-.058.329a.792.792,0,0,0,.339-.178c-1.437,3.814-3.821,9.75-5.478,11.821-2.517,3.148-2.2,8.18-2.2,8.18s-2.517,13.218-2.412,15.63a6.217,6.217,0,0,1-.909,3.3,10.918,10.918,0,0,0-1.295,1.839,5.6,5.6,0,0,1-4.931,3.038C203.722,512.455,206.858,513.82,206.858,513.82Zm16.2-63.986h0l.271-.108.063-.026.259-.112.044-.021.234-.108.051-.023.248-.124.058-.03.234-.124h.019l.234-.136.056-.033.234-.136.037-.023.2-.124.047-.028.217-.138.049-.033.2-.133.019-.012.206-.143.047-.033.2-.14.03-.021.173-.126.037-.028.18-.138.037-.028.164-.129h.014l.166-.133.035-.028.157-.129.014-.012.14-.119.023-.021.138-.119.021-.019.126-.115h0l.122-.11.016-.016.234-.234.341-.028a3.216,3.216,0,0,1,.416,1.807,23.813,23.813,0,0,1-.626,4.382,13.664,13.664,0,0,1-.622,3.538,2.085,2.085,0,0,1-.741-.18s-.014.075-.035.2l-.2-.051-1.021-.255S224.779,451.62,223.061,449.834Z" transform="translate(-168.561 -330.897)" fill="url(#linear-gradient-6)"/>
    <path id="Pfad_751" data-name="Pfad 751" d="M379.13,801.79l1.947,5.424s-5.331,4.09-8.794,3.244a9.679,9.679,0,0,0-1.589-.257c-.717-.054-1.951-.575-1.19-1.241a65.4,65.4,0,0,0,5.735-6.144Z" transform="translate(-296.182 -626.976)" fill="#4f4d59"/>
    <path id="Pfad_752" data-name="Pfad 752" d="M229.358,795.512l.921,5.223s-4.711-.206-12.7,2.253c0,0-3.073-1.332-.512-2.97a5.478,5.478,0,0,0,4.814-2.97c1.844-3.176,2.97-2.765,2.97-2.765Z" transform="translate(-178.773 -621.21)" fill="#4f4d59"/>
    <path id="Pfad_753" data-name="Pfad 753" d="M274.54,605.48l-.9,15.892a6.574,6.574,0,0,0,1.568,4.648A9.635,9.635,0,0,0,276.9,627.6c2.15,1.535,6.759,17.717,6.759,17.717s-5.223.306-6.656,1.332c0,0-.306-4.1-1.126-4.506s-6.862-12.386-6.862-12.386l-6.046-15.569s-4.814,8.3-8.911,9.729V627.4s-2.253,10.241-3.073,11.367,0,5.632,0,5.632-2.356,2.97-7.782-.206a6.834,6.834,0,0,0,1.636-4.3c-.105-2.356,2.36-15.256,2.36-15.256s-.306-4.908,2.15-7.988,6.544-14.85,6.544-14.85l2.818-6.065Z" transform="translate(-199.579 -469.073)" fill="#787c9c"/>
    <g id="Gruppe_13" data-name="Gruppe 13" transform="translate(47.689 126.662)" opacity="0.1">
      <path id="Pfad_754" data-name="Pfad 754" d="M332.729,645.335s-4.609-16.182-6.759-17.717a9.756,9.756,0,0,1-1.778-1.68,6.5,6.5,0,0,1-1.479-4.543l.9-15.892-15.1-9.311.206-.442,15.819,9.75-.9,15.892a6.5,6.5,0,0,0,1.479,4.543,9.756,9.756,0,0,0,1.778,1.68c2.15,1.535,6.759,17.717,6.759,17.717s-5.223.306-6.656,1.332c0,0-.012-.159-.037-.418A28.87,28.87,0,0,1,332.729,645.335Z" transform="translate(-297.316 -595.75)"/>
      <path id="Pfad_755" data-name="Pfad 755" d="M263.354,704.941s-.82-4.506,0-5.632,3.073-11.367,3.073-11.367v-3.482c4.1-1.435,8.911-9.729,8.911-9.729l.358.923c-1.388,2.2-5.092,7.668-8.346,8.806v3.482s-2.253,10.241-3.073,11.367,0,5.632,0,5.632a4.28,4.28,0,0,1-3.667,1.243A4.034,4.034,0,0,0,263.354,704.941Z" transform="translate(-260.61 -656.272)"/>
    </g>
    <path id="Pfad_756" data-name="Pfad 756" d="M210.222,530.369l2.012.133,1.061.07V528l-1.4-.252-.862-.157s-2.662-7.885-5.223-6.453S210.222,530.369,210.222,530.369Z" transform="translate(-170.492 -411.781)" fill="#714b4f"/>
    <path id="Pfad_757" data-name="Pfad 757" d="M339.072,470.93s1.332,5.12,1.741,8.3-9.523.615-9.523.615,3.788-4.609,1.636-7.067Z" transform="translate(-267.082 -373.439)" fill="#714b4f"/>
    <path id="Pfad_758" data-name="Pfad 758" d="M316.227,505l-.206,1.947,3.174-.206,3.174-2.765,3.174-8.911,2.052-3.171,1.535-1.947-.615-2.356s-.28.234-.755.608c-1.559,1.194-5.219,3.674-7.892,2.989a3.185,3.185,0,0,1-.365-.115l-3.994,6.862Z" transform="translate(-254.99 -386.206)" fill="#e6e6f0"/>
    <path id="Pfad_759" data-name="Pfad 759" d="M265.574,485s1.636.306,2.765,2.765c.867,1.891,3.791,3.84,5.1,4.641a2.185,2.185,0,0,1,.991,1.381c.264,1.169.365,3.342-1.07,6.474a41.427,41.427,0,0,1-3.891,7.067s-.409,4.908.206,6.35,0,9.32,0,9.32-10.75,2.047-14.338,0-3.073-9.953-3.073-9.953-3.379,7.175-4.6,7.38l.7-3.994s3.994-4.3,4.207-9.832c0,0,1.229-5.018.206-6.35,0,0-17.308,1.435-18.332.206,0,0,11.367-.512,13.108-3.272,0,0,5.018-3.994,5.223-6.656a2.945,2.945,0,0,1,1.535-2.412,4.011,4.011,0,0,1,2.295-.512l2.314.159s-3.992,7.053-3.779,7.988-.206,8.4-.206,8.4,4.609-9.935,6.656-11.061,4.4-5.749,4.4-5.749L265.574,485" transform="translate(-192.867 -384.221)" opacity="0.1"/>
    <path id="Pfad_760" data-name="Pfad 760" d="M316.227,505l-.206,1.947,3.174-.206,3.174-2.765,3.174-8.911,2.052-3.171,1.535-1.947-.615-2.356s-.28.234-.755.608l.14.809s-2.356,4.625-4.4,5.751-6.656,11.061-6.656,11.061.409-7.479.206-8.4c-.14-.626,1.655-4.078,2.821-6.235a3.185,3.185,0,0,1-.365-.115l-3.994,6.862Z" transform="translate(-254.99 -386.206)" opacity="0.1"/>
    <path id="Pfad_761" data-name="Pfad 761" d="M234.041,552.753l1.061.07v-2.571L233.7,550A3.986,3.986,0,0,1,234.041,552.753Z" transform="translate(-192.3 -434.03)" opacity="0.1"/>
    <path id="Pfad_762" data-name="Pfad 762" d="M265.574,483.64s1.636.306,2.765,2.765c.867,1.891,3.791,3.84,5.1,4.641a2.185,2.185,0,0,1,.991,1.381c.264,1.168.365,3.342-1.07,6.474a41.427,41.427,0,0,1-3.891,7.067s-.409,4.908.206,6.35,0,9.32,0,9.32-10.75,2.047-14.338,0-3.073-9.935-3.073-9.935-3.379,7.168-4.6,7.371l.7-3.994s3.994-4.3,4.207-9.832c0,0,1.229-5.018.206-6.35,0,0-3.994,4.3-8.5,4.207a86.525,86.525,0,0,0-9.832.512s1.024-3.272,0-4.506c0,0,11.367-.512,13.108-3.272,0,0,5.018-3.994,5.223-6.656a2.945,2.945,0,0,1,1.538-2.421,4.01,4.01,0,0,1,2.295-.512l2.314.159s-3.994,7.063-3.781,7.983-.206,8.4-.206,8.4,4.609-9.935,6.656-11.061,4.4-5.751,4.4-5.751l-.409-2.337" transform="translate(-192.867 -383.179)" fill="#0a3250"/>
    <path id="Pfad_763" data-name="Pfad 763" d="M322.242,529.65s-2.459,8.3-3.891,9.32-10.138,6.247-12.7,5.018c0,0-.615,3.073.306,3.788,0,0,9.549-.374,9.626-.409,0,0,6.247-.82,7.271-3.891s2.253-8.3,2.253-8.3Z" transform="translate(-247.282 -418.436)" opacity="0.1"/>
    <ellipse id="Ellipse_181" data-name="Ellipse 181" cx="0.358" cy="0.512" rx="0.358" ry="0.512" transform="translate(61.494 119.562)" fill="#ba7855"/>
    <ellipse id="Ellipse_182" data-name="Ellipse 182" cx="0.358" cy="0.512" rx="0.358" ry="0.512" transform="translate(60.471 123.147)" fill="#ba7855"/>
    <g id="Gruppe_14" data-name="Gruppe 14" transform="translate(41.573 100.449)" opacity="0.1">
      <path id="Pfad_764" data-name="Pfad 764" d="M344.38,521.495s.615-7.885,0-9.32-.206-6.35-.206-6.35a41.123,41.123,0,0,0,3.891-7.067,10.21,10.21,0,0,0,1.07-6.474,2.185,2.185,0,0,0-.993-1.381c-1.306-.8-4.23-2.751-5.095-4.641a5.32,5.32,0,0,0-2.01-2.438l-.04-.234s1.636.306,2.765,2.765c.867,1.891,3.791,3.84,5.095,4.641a2.185,2.185,0,0,1,.993,1.381c.264,1.169.365,3.342-1.07,6.474a41.427,41.427,0,0,1-3.891,7.067s-.409,4.908.206,6.35,0,9.32,0,9.32-7.682,1.463-12.225.68C337.46,522.813,344.38,521.495,344.38,521.495Z" transform="translate(-309.866 -483.59)"/>
      <path id="Pfad_765" data-name="Pfad 765" d="M319.981,503.259a62.249,62.249,0,0,1-.115,6.614c-.5,1.012-.806,1.68-.806,1.68s.409-7.479.206-8.4c-.194-.876,3.4-7.3,3.76-7.946l.746.051S319.768,502.338,319.981,503.259Z" transform="translate(-299.284 -492.494)"/>
      <path id="Pfad_766" data-name="Pfad 766" d="M243.554,552.667c4.506.1,8.5-4.207,8.5-4.207a1.637,1.637,0,0,1,.259.556c-1.169,1.1-4.44,3.828-8.042,3.739a84.742,84.742,0,0,0-9.832.512s.021-.068.054-.185A81.521,81.521,0,0,1,243.554,552.667Z" transform="translate(-234.44 -533.3)"/>
      <path id="Pfad_767" data-name="Pfad 767" d="M294.861,603.27s-.042.64-.019,1.6c-1.066,2.1-3.005,5.73-3.872,5.875l.152-.841A48.225,48.225,0,0,0,294.861,603.27Z" transform="translate(-277.759 -575.3)"/>
    </g>
    <rect id="Rechteck_392" data-name="Rechteck 392" width="24.481" height="18.449" transform="translate(35.38 102.574)" fill="url(#linear-gradient)"/>
    <rect id="Rechteck_393" data-name="Rechteck 393" width="23.216" height="17.497" transform="translate(36.011 103.048)" fill="#fff"/>
    <rect id="Rechteck_394" data-name="Rechteck 394" width="7.738" height="4.375" transform="translate(38.283 104.563)" fill="#42659f" opacity="0.2"/>
    <rect id="Rechteck_395" data-name="Rechteck 395" width="9.084" height="1.01" transform="translate(47.872 104.563)" fill="#e6e8ec"/>
    <rect id="Rechteck_396" data-name="Rechteck 396" width="6.394" height="1.01" transform="translate(47.872 106.245)" fill="#e6e8ec"/>
    <rect id="Rechteck_397" data-name="Rechteck 397" width="9.084" height="1.01" transform="translate(47.872 107.928)" fill="#e6e8ec"/>
    <rect id="Rechteck_398" data-name="Rechteck 398" width="18.675" height="1.01" transform="translate(38.283 109.611)" fill="#e6e8ec"/>
    <rect id="Rechteck_399" data-name="Rechteck 399" width="18.675" height="1.01" transform="translate(38.283 111.293)" fill="#e6e8ec"/>
    <rect id="Rechteck_400" data-name="Rechteck 400" width="18.675" height="1.01" transform="translate(38.283 112.974)" fill="#e6e8ec"/>
    <rect id="Rechteck_401" data-name="Rechteck 401" width="17.161" height="1.01" transform="translate(38.283 114.656)" fill="#e6e8ec"/>
    <rect id="Rechteck_402" data-name="Rechteck 402" width="18.675" height="1.01" transform="translate(38.283 116.339)" fill="#e6e8ec"/>
    <rect id="Rechteck_403" data-name="Rechteck 403" width="18.675" height="1.01" transform="translate(38.283 118.022)" fill="#e6e8ec"/>
    <path id="Pfad_768" data-name="Pfad 768" d="M283.019,569.922l2.176.467,1.715.353-.921-2.571-.64-.161-1-.248s-1.433-7.163-4.3-6.649S283.019,569.922,283.019,569.922Z" transform="translate(-227.211 -442.526)" fill="#714b4f"/>
    <path id="Pfad_769" data-name="Pfad 769" d="M304.616,593.08l1.715.362-.921-2.571-.64-.161A10.228,10.228,0,0,0,304.616,593.08Z" transform="translate(-246.632 -465.226)" opacity="0.1"/>
    <path id="Pfad_770" data-name="Pfad 770" d="M322.242,528.78s-2.459,8.3-3.891,9.32-10.138,6.247-12.7,5.018c0,0-.615,3.073.306,3.788,0,0,9.549-.374,9.626-.409,0,0,6.247-.82,7.271-3.891s2.253-8.3,2.253-8.3Z" transform="translate(-247.282 -417.77)" fill="#0a3250"/>
    <path id="Pfad_771" data-name="Pfad 771" d="M344,471.81s.208.8.486,1.968a5.527,5.527,0,0,1-6.1,2.8,3.189,3.189,0,0,0-.528-2.938Z" transform="translate(-272.109 -374.114)" opacity="0.1"/>
    <circle id="Ellipse_183" data-name="Ellipse 183" cx="5.529" cy="5.529" r="5.529" transform="translate(62.058 91.349)" fill="#714b4f"/>
    <path id="Pfad_772" data-name="Pfad 772" d="M316.242,430.887a2.961,2.961,0,0,1-1.234.075,2.027,2.027,0,0,1-1.5-1.935,2.973,2.973,0,0,1,1.14-2.283c.467-.39,1.028-.668,1.456-1.1a10.325,10.325,0,0,0,1.169-1.821,5.406,5.406,0,0,1,2.776-2.159,2.534,2.534,0,0,1,2.538.3c.334.316.531.771.9,1.038a4.036,4.036,0,0,0,1.937.348,3.693,3.693,0,0,1,2.783,2.085,5.216,5.216,0,0,1,.271,3.543c-.129.5-.315.991-.453,1.491-.287,1.042-.355,2.136-.687,3.164a3.391,3.391,0,0,1-2.052,2.337,6.487,6.487,0,0,0-.659-3.342.958.958,0,0,0-.467-.519,1.133,1.133,0,0,0-.563,0,5.609,5.609,0,0,1-3.739-.757c-.393-.234-1-1.054-1.426-1.136C317.908,430.113,316.8,430.761,316.242,430.887Z" transform="translate(-253.458 -335.532)" opacity="0.1"/>
    <path id="Pfad_773" data-name="Pfad 773" d="M316.242,430.007a2.961,2.961,0,0,1-1.234.075,2.027,2.027,0,0,1-1.5-1.935,2.973,2.973,0,0,1,1.14-2.283c.467-.39,1.028-.668,1.456-1.1a10.326,10.326,0,0,0,1.169-1.821,5.406,5.406,0,0,1,2.776-2.159,2.534,2.534,0,0,1,2.538.3c.334.316.531.771.9,1.038a4.036,4.036,0,0,0,1.937.348,3.693,3.693,0,0,1,2.783,2.085,5.216,5.216,0,0,1,.271,3.543c-.129.5-.315.991-.453,1.491-.287,1.042-.355,2.136-.687,3.164a3.391,3.391,0,0,1-2.052,2.337,6.487,6.487,0,0,0-.659-3.342.958.958,0,0,0-.467-.519,1.133,1.133,0,0,0-.563,0,5.609,5.609,0,0,1-3.739-.757c-.393-.234-1-1.054-1.426-1.136C317.908,429.233,316.8,429.883,316.242,430.007Z" transform="translate(-253.458 -334.858)" fill="#503f43"/>
    <path id="Pfad_774" data-name="Pfad 774" d="M114.251,801.218a2.727,2.727,0,0,0,.9-1.351,1.2,1.2,0,0,0-.626-1.377,1.755,1.755,0,0,0-1.655.582,2.2,2.2,0,0,1-1.61.776,2.449,2.449,0,0,0,.757-2.293.958.958,0,0,0-.21-.467c-.32-.341-.9-.194-1.281.075-1.215.855-1.554,2.505-1.561,3.992a7.651,7.651,0,0,1-.023-1.636,1.689,1.689,0,0,0-.617-1.454,1.87,1.87,0,0,0-.935-.222,1.946,1.946,0,0,0-1.528.435,1.5,1.5,0,0,0,.061,1.87,6.084,6.084,0,0,0,1.582,1.267,3.5,3.5,0,0,1,1.131,1.077,1.069,1.069,0,0,1,.084.192h3.419A9.544,9.544,0,0,0,114.251,801.218Z" transform="translate(-94.103 -623.221)" fill="#00a18a"/>
    <path id="Pfad_775" data-name="Pfad 775" d="M983.251,662.218a2.727,2.727,0,0,0,.9-1.351,1.2,1.2,0,0,0-.626-1.377,1.755,1.755,0,0,0-1.655.582,2.2,2.2,0,0,1-1.61.776,2.449,2.449,0,0,0,.757-2.293.958.958,0,0,0-.21-.467c-.32-.341-.9-.194-1.281.075-1.215.855-1.554,2.505-1.561,3.992a7.65,7.65,0,0,1-.023-1.636,1.689,1.689,0,0,0-.617-1.454,1.87,1.87,0,0,0-.935-.222,1.947,1.947,0,0,0-1.528.435,1.5,1.5,0,0,0,.061,1.87,6.083,6.083,0,0,0,1.582,1.267,3.506,3.506,0,0,1,1.131,1.077,1.075,1.075,0,0,1,.084.192h3.424A9.543,9.543,0,0,0,983.251,662.218Z" transform="translate(-760.014 -516.706)" fill="#00a18a"/>
    <path id="Pfad_776" data-name="Pfad 776" d="M1018.112,309.407c-.484-1.416-1.182-3.211-1.734-3.634a.516.516,0,0,0-.11-.068h-.068v-1.75l-1.3.208a12.468,12.468,0,0,1-.467-1.937.9.9,0,0,0,.979.2c-.021-.035-.04-.072-.058-.11l.058-.026a2.424,2.424,0,0,1-.315-1.187,4.326,4.326,0,0,1,.18-1.122c.234-.806.629-1.559.848-2.37a5.758,5.758,0,0,0,.2-1.6,5.843,5.843,0,0,0-.608-2.641,1.543,1.543,0,0,0-.467-.6,5.958,5.958,0,0,0-.566-.276,3.055,3.055,0,0,1-.823-.82,7.376,7.376,0,0,0-3.564-2.379,2.087,2.087,0,0,0-1.141-.091c-.876.234-1.194,1.32-1.9,1.891a5.233,5.233,0,0,1-2.274.722,3.865,3.865,0,0,0-2.117,1.11,2.3,2.3,0,0,0-.568,1.531,1.54,1.54,0,0,0,.626,1.37,1.968,1.968,0,0,0,1.662.234,5.651,5.651,0,0,0,4.279,7.1l.152.273h0a11.7,11.7,0,0,1,1.061,2.769,10.228,10.228,0,0,1-3.3,1.379,5.569,5.569,0,0,1-.173.916,5.052,5.052,0,0,1-1.04,2.045c-1.077,1.211-5.922,10.362-5.922,10.362s-.152.365-.4.986c-3.008.369-7.918.9-9.287.629l-5.375-5.113s-1.739,1.327-1.587,2.94l-.97-.921s-5.113,3.9,2.961,6.46l12.286,1.426c-1.169,3.531-2.262,7.642-1.923,9.879h.1a4.648,4.648,0,0,0,.7-.054l-.021.4-1.183,21.188a6.071,6.071,0,0,0,3.365,5.651s4.44,13.052,2.692,14.534c0,0,.208.11.559.262l-3.653,3.237a17.08,17.08,0,0,1-4.172.538,1.068,1.068,0,0,0-1.18.795.178.178,0,0,1-.014.084v.259a.2.2,0,0,0,.016.086v.033a.731.731,0,0,0,.03.094l.012.028a.785.785,0,0,0,.042.091v.021c.016.03.035.058.054.089l.016.026q.033.047.072.093l.021.023c.028.033.058.063.089.094l.014.012.1.086.021.016c.037.03.079.058.122.086l.028.019c.044.028.091.056.14.082h.021l.152.075h.021l.178.07.037.014.194.063h.033l.213.056h.016l.234.047h.047l.252.037h.049l.285.028c.554.042,1.3.058,2.162.054h0v.138a.164.164,0,0,0,.016.086v.033a.721.721,0,0,0,.03.094l.012.028a.785.785,0,0,0,.042.091v.021c.016.03.035.058.054.089l.016.026q.033.047.072.093l.021.023c.028.033.058.063.089.094l.014.012.1.086.021.016c.037.03.079.058.122.086l.03.019c.044.028.091.056.14.082H998l.152.075h.021l.178.07.037.014.194.063h.033l.213.056h.016l.234.047h.047l.252.037h.049l.285.028c3.506.269,14.667-.538,14.667-.538v-.03h0v-.04h0a7.113,7.113,0,0,0-1.26-5.789c.056-.058.112-.122.164-.187,0,0-1.479-2.557-.673-3.365s-4.036-14.8-4.036-14.8a11.088,11.088,0,0,1-1.077-8.612,17.562,17.562,0,0,0-.136-9.554,5.511,5.511,0,0,0,3.6-5.394v-.4a1.425,1.425,0,0,0,.234.014,1.046,1.046,0,0,0,.15,0,7.114,7.114,0,0,1,.136-4.172c.809-1.75,2.557-.136,4.172-7.266,1.168-5.16,2.2-11.1,2.676-13.985A7.365,7.365,0,0,0,1018.112,309.407ZM987.4,324.544l-1.227-1.169c.407.168.858.334,1.362.493l4.627.538a23.623,23.623,0,0,1-4.763.14Z" transform="translate(-764.499 -234.146)" fill="url(#linear-gradient-8)"/>
    <path id="Pfad_777" data-name="Pfad 777" d="M1000.247,424.24s-9.519,1.323-11.5.935l-5.289-5.025s-5.025,3.835,2.91,6.345l14.807,1.718Z" transform="translate(-765.632 -334.527)" fill="#fdc2cc"/>
    <path id="Pfad_778" data-name="Pfad 778" d="M1000.247,424.24s-9.519,1.323-11.5.935l-5.289-5.025s-5.025,3.835,2.91,6.345l14.807,1.718Z" transform="translate(-765.632 -334.527)" opacity="0.05"/>
    <path id="Pfad_779" data-name="Pfad 779" d="M1042.67,667.33l-4.627,4.1a16.763,16.763,0,0,1-4.1.528c-1.456-.133-2.115,2.248,1.323,2.512s14.41-.528,14.41-.528,1.059-4.23-2.115-6.612Z" transform="translate(-804.617 -523.94)" fill="#47465a"/>
    <path id="Pfad_780" data-name="Pfad 780" d="M1042.67,667.33l-4.627,4.1a16.763,16.763,0,0,1-4.1.528c-1.456-.133-2.115,2.248,1.323,2.512s14.41-.528,14.41-.528,1.059-4.23-2.115-6.612Z" transform="translate(-804.617 -523.94)" opacity="0.05"/>
    <path id="Pfad_781" data-name="Pfad 781" d="M1049.847,687.78a7.288,7.288,0,0,1-.166,1.433s-10.984.792-14.41.528c-1.652-.126-2.356-.743-2.482-1.334-.15.678.449,1.575,2.482,1.732,3.438.264,14.41-.528,14.41-.528A7.647,7.647,0,0,0,1049.847,687.78Z" transform="translate(-804.621 -539.611)" fill="#fff" opacity="0.3"/>
    <path id="Pfad_782" data-name="Pfad 782" d="M1098.35,334.432s2.91,4.1,1.851,6.876,5.546-2.91,5.546-2.91a11.267,11.267,0,0,1-1.059-7.668Z" transform="translate(-854.877 -266.005)" fill="#fdc2cc"/>
    <path id="Pfad_783" data-name="Pfad 783" d="M1062.51,674.11l-4.627,4.1a16.766,16.766,0,0,1-4.1.528c-1.456-.133-2.115,2.248,1.323,2.512s14.41-.528,14.41-.528,1.059-4.23-2.115-6.612Z" transform="translate(-819.82 -529.135)" fill="#47465a"/>
    <path id="Pfad_784" data-name="Pfad 784" d="M1056.4,512.354a3.538,3.538,0,0,1-2.678,1.227,11.224,11.224,0,0,1-4.856-1.227c1.718-1.454-2.643-14.279-2.643-14.279a5.967,5.967,0,0,1-3.3-5.553l1.168-20.816.292-5.228,3.7-2.248,2.919,2.239,2.767,2.124a11.127,11.127,0,0,1,.346,2.064c.32,4.859-3.52,6-3.52,6a17.249,17.249,0,0,1,.133,9.386,10.891,10.891,0,0,0,1.059,8.46s4.76,13.749,3.973,14.543S1056.4,512.354,1056.4,512.354Z" transform="translate(-812.395 -368.305)" fill="#565171"/>
    <path id="Pfad_785" data-name="Pfad 785" d="M1056.4,512.354a3.538,3.538,0,0,1-2.678,1.227,11.224,11.224,0,0,1-4.856-1.227c1.718-1.454-2.643-14.279-2.643-14.279a5.967,5.967,0,0,1-3.3-5.553l1.168-20.816.292-5.228,3.7-2.248,2.919,2.239,2.767,2.124a11.127,11.127,0,0,1,.346,2.064c.32,4.859-3.52,6-3.52,6a17.249,17.249,0,0,1,.133,9.386,10.891,10.891,0,0,0,1.059,8.46s4.76,13.749,3.973,14.543S1056.4,512.354,1056.4,512.354Z" transform="translate(-812.395 -368.305)" fill="#0a3250" opacity="0.05"/>
    <path id="Pfad_786" data-name="Pfad 786" d="M1069.262,519.152c-2.248,2.776-7.535,0-7.535,0a.84.84,0,0,0,.234-.36c.97-2.636-3.272-15.24-3.272-15.24-3.569-1.718-3.973-5.817-3.973-5.817l-.935-21.185-.122-2.744,5.562-2.124,1.708-.652,5.686,4.363a10.312,10.312,0,0,1,.365,2.765,5.416,5.416,0,0,1-3.538,5.3,17.25,17.25,0,0,1,.133,9.386,10.891,10.891,0,0,0,1.059,8.46s4.761,13.749,3.973,14.543S1069.262,519.152,1069.262,519.152Z" transform="translate(-820.632 -373.516)" fill="#0a3250"/>
    <path id="Pfad_787" data-name="Pfad 787" d="M1062.552,472.975a17.817,17.817,0,0,1-4.646-2.288l-.743-.467s-1.189-3.3-4.363-.792a11.874,11.874,0,0,1-3.447,1.949,8.065,8.065,0,0,1-1.472.369l.292-5.228,3.7-2.248,2.919,2.239,1.708-.652,5.686,4.363A10.313,10.313,0,0,1,1062.552,472.975Z" transform="translate(-816.202 -368.336)" opacity="0.1"/>
    <path id="Pfad_788" data-name="Pfad 788" d="M1066.985,363.934c-.467,2.837-1.482,8.668-2.629,13.739-1.587,7.011-3.3,5.42-4.1,7.14a6.99,6.99,0,0,0-.133,4.1c-1.323.133-5.686-2.776-5.686-2.776s-1.19-3.3-4.363-.792-5.686,2.379-5.686,2.379c-.661-4.363,4.23-16,4.23-16s4.761-8.991,5.817-10.18a4.963,4.963,0,0,0,1.021-2.01,5.482,5.482,0,0,0,.168-.9c1.718-.133,5.95-3.038,5.95-3.038l3.3-.528v1.718a.506.506,0,0,1,.107.065c.545.416,1.229,2.18,1.7,3.571A7.246,7.246,0,0,1,1066.985,363.934Z" transform="translate(-813.48 -284.656)" fill="#f68080"/>
    <path id="Pfad_789" data-name="Pfad 789" d="M1081.018,368.443s-3.438-2.776-8.593,6.214-6.345,7.535-6.345,7.535,1.059,3.973.528,4.761a29.014,29.014,0,0,1,4.891,0c1.323.264,9.519-10.042,9.519-10.042S1085.258,371.086,1081.018,368.443Z" transform="translate(-830.149 -294.594)" opacity="0.1"/>
    <path id="Pfad_790" data-name="Pfad 790" d="M1080.488,366.173s-3.438-2.776-8.593,6.214-6.345,7.535-6.345,7.535,4.1,4.494,5.42,4.761,9.519-10.049,9.519-10.049S1084.718,368.818,1080.488,366.173Z" transform="translate(-829.743 -292.854)" opacity="0.1"/>
    <path id="Pfad_791" data-name="Pfad 791" d="M1066.118,432.93a15.985,15.985,0,0,0-.528-3.594c.8-.105,1.311-.175,1.311-.175l.935,3.973Z" transform="translate(-829.773 -341.431)" opacity="0.1"/>
    <path id="Pfad_792" data-name="Pfad 792" d="M1105.265,331.87l-6.345,3.7a13.555,13.555,0,0,1,.739,1.211,5.579,5.579,0,0,0,1.112.112c1.694,0,2.484-1.779,3.505-2.975C1104.2,332.959,1104.982,332.933,1105.265,331.87Z" transform="translate(-855.314 -266.878)" opacity="0.1"/>
    <circle id="Ellipse_184" data-name="Ellipse 184" cx="5.553" cy="5.553" r="5.553" transform="translate(239.773 58.644)" fill="#fdc2cc"/>
    <rect id="Rechteck_404" data-name="Rechteck 404" width="44.719" height="33.7" transform="translate(192.025 70.526)" fill="url(#linear-gradient)"/>
    <rect id="Rechteck_405" data-name="Rechteck 405" width="42.714" height="32.19" transform="translate(193.028 71.281)" fill="#fff"/>
    <rect id="Rechteck_406" data-name="Rechteck 406" width="14.237" height="8.046" transform="translate(197.206 74.067)" fill="#42659f" opacity="0.2"/>
    <rect id="Rechteck_407" data-name="Rechteck 407" width="16.715" height="1.858" transform="translate(214.849 74.067)" fill="#e6e8ec"/>
    <rect id="Rechteck_408" data-name="Rechteck 408" width="11.762" height="1.858" transform="translate(214.849 77.163)" fill="#e6e8ec"/>
    <rect id="Rechteck_409" data-name="Rechteck 409" width="16.715" height="1.858" transform="translate(214.849 80.257)" fill="#e6e8ec"/>
    <rect id="Rechteck_410" data-name="Rechteck 410" width="34.357" height="1.858" transform="translate(197.206 83.352)" fill="#e6e8ec"/>
    <rect id="Rechteck_411" data-name="Rechteck 411" width="34.357" height="1.858" transform="translate(197.206 86.448)" fill="#e6e8ec"/>
    <rect id="Rechteck_412" data-name="Rechteck 412" width="34.357" height="1.858" transform="translate(197.206 89.542)" fill="#e6e8ec"/>
    <rect id="Rechteck_413" data-name="Rechteck 413" width="31.571" height="1.858" transform="translate(197.206 92.639)" fill="#e6e8ec"/>
    <rect id="Rechteck_414" data-name="Rechteck 414" width="34.357" height="1.858" transform="translate(197.206 95.733)" fill="#e6e8ec"/>
    <rect id="Rechteck_415" data-name="Rechteck 415" width="34.357" height="1.858" transform="translate(197.206 98.827)" fill="#e6e8ec"/>
    <path id="Pfad_793" data-name="Pfad 793" d="M1074.389,297.156a3.8,3.8,0,0,1,2.08-1.091,5.3,5.3,0,0,0,2.234-.7c.7-.559,1.01-1.62,1.87-1.856a2.05,2.05,0,0,1,1.119.089,7.245,7.245,0,0,1,3.506,2.337,3,3,0,0,0,.806.806,5.84,5.84,0,0,1,.556.271,1.514,1.514,0,0,1,.453.591,5.746,5.746,0,0,1,.4,4.036c-.215.8-.6,1.535-.832,2.337a3.067,3.067,0,0,0,.133,2.4.968.968,0,0,1-1.169-.432,4.984,4.984,0,0,1-.467-1.283,4.907,4.907,0,0,0-1.433-2.227c-.416-.369-1.168-.617-1.451-.14-.112.185-.105.418-.2.61a.8.8,0,0,1-1.1.234,1.685,1.685,0,0,1-.687-1.019c-.545-1.842-1.472-3-3.442-2.213a2.364,2.364,0,0,1-2.3-.012A1.87,1.87,0,0,1,1074.389,297.156Z" transform="translate(-836.089 -237.451)" opacity="0.1"/>
    <path id="Pfad_794" data-name="Pfad 794" d="M1074.389,296.586a3.8,3.8,0,0,1,2.08-1.091,5.3,5.3,0,0,0,2.234-.7c.7-.559,1.01-1.62,1.87-1.856a2.05,2.05,0,0,1,1.119.089,7.245,7.245,0,0,1,3.506,2.337,3,3,0,0,0,.806.806,5.84,5.84,0,0,1,.556.271,1.514,1.514,0,0,1,.453.591,5.746,5.746,0,0,1,.4,4.036c-.215.8-.6,1.535-.832,2.337a3.067,3.067,0,0,0,.133,2.4.968.968,0,0,1-1.169-.432,4.984,4.984,0,0,1-.467-1.283,4.907,4.907,0,0,0-1.433-2.227c-.416-.369-1.168-.617-1.451-.14-.112.185-.105.418-.2.61a.8.8,0,0,1-1.1.234,1.685,1.685,0,0,1-.687-1.019c-.545-1.842-1.472-3-3.442-2.213a2.364,2.364,0,0,1-2.3-.012A1.87,1.87,0,0,1,1074.389,296.586Z" transform="translate(-836.089 -237.014)" fill="#b96b6b"/>
    <path id="Pfad_795" data-name="Pfad 795" d="M1101.5,356.861h-2.688s-5.289,2.643-5.42,2.512a4.5,4.5,0,0,0-1.426.173,5.455,5.455,0,0,0,.168-.9c1.718-.133,5.95-3.038,5.95-3.038l3.3-.528V356.8A.511.511,0,0,1,1101.5,356.861Z" transform="translate(-849.988 -284.664)" opacity="0.05"/>
    <path id="Pfad_796" data-name="Pfad 796" d="M1069.647,694.57a7.288,7.288,0,0,1-.166,1.433s-10.984.792-14.41.528c-1.652-.126-2.356-.743-2.482-1.334-.15.678.449,1.575,2.482,1.732,3.438.264,14.41-.528,14.41-.528a7.641,7.641,0,0,0,.166-1.83Z" transform="translate(-819.794 -544.814)" fill="#fff" opacity="0.3"/>
    <g id="Gruppe_15" data-name="Gruppe 15" transform="translate(230.946 72.136)" opacity="0.05">
      <path id="Pfad_797" data-name="Pfad 797" d="M1049.146,480.931a11.228,11.228,0,0,1-4.4,2.223,1.961,1.961,0,0,0,.033.29s2.512.133,5.686-2.379a4.26,4.26,0,0,1,1.7-.888C1051.476,479.856,1050.487,479.877,1049.146,480.931Z" transform="translate(-1044.75 -452.522)"/>
      <path id="Pfad_798" data-name="Pfad 798" d="M1113.6,366.076c-.467-1.4-1.168-3.155-1.7-3.571a.508.508,0,0,0-.107-.065s-1.094.037-1.059.065c.545.416,1.073,2.047,1.547,3.438a7.245,7.245,0,0,1,.287,3.506c-.467,2.837-1.482,8.668-2.629,13.739-1.587,7.011-3.3,5.42-4.1,7.14a6.676,6.676,0,0,0-.185,3.882,3.343,3.343,0,0,0,1.374.348,6.99,6.99,0,0,1,.133-4.1c.795-1.72,2.512-.133,4.1-7.14,1.147-5.069,2.157-10.9,2.629-13.739A7.244,7.244,0,0,0,1113.6,366.076Z" transform="translate(-1091.262 -362.44)"/>
    </g>
    <path id="Pfad_799" data-name="Pfad 799" d="M1011.964,419.7l-1.708-.2-13.087-1.521c-7.932-2.512-2.91-6.345-2.91-6.345l5.289,5.025c1.526.306,7.509-.407,10.189-.75.8-.105,1.311-.175,1.311-.175Z" transform="translate(-773.911 -327.998)" fill="#fdc2cc"/>
    <path id="Pfad_800" data-name="Pfad 800" d="M1081.018,367.313s-3.438-2.776-8.593,6.214-6.345,7.535-6.345,7.535,1.059,3.973.528,4.761a29.01,29.01,0,0,1,4.891,0c1.323.264,9.519-10.049,9.519-10.049S1085.258,369.956,1081.018,367.313Z" transform="translate(-830.149 -293.728)" fill="#f68080"/>
  </g>
</svg>
